<?xml version="1.0" encoding="UTF-8"?>
<svg width="527px" height="220px" viewBox="0 0 527 220" version="1.1" xmlns="http://www.w3.org/2000/svg" xmlns:xlink="http://www.w3.org/1999/xlink">
    <title>Another-brick-sticker</title>
    <g id="Website-Deployments" stroke="none" stroke-width="1" fill="none" fill-rule="evenodd">
        <g id="Work-In-Progress-Copy-4" transform="translate(-776.000000, -2548.000000)" fill-rule="nonzero">
            <g id="Group-2" transform="translate(206.000000, 1875.000000)">
                <g id="Another-brick-sticker" transform="translate(570.000000, 673.000000)">
                    <path d="M522.742436,138.682111 L522.402293,138.21021 L522.043252,137.757186 C518.018218,132.679537 511.971219,129.77263 505.470696,129.77263 C501.011034,129.77263 496.986,131.037323 493.168832,133.038181 C493.206626,132.528529 493.263316,131.943372 493.30111,131.603604 C493.584563,128.526813 493.981398,124.355212 493.263316,119.975976 C495.71991,119.975976 497.722978,117.975118 497.722978,115.521236 L497.722978,89.9253539 C499.253625,90.2462462 500.803168,90.4161304 502.352712,90.4161304 C512.727094,90.4161304 522.081046,82.960103 524.575433,72.6915487 C526.654089,64.1973402 523.725074,55.7408837 517.205653,50.3423423 C522.572364,45.6610897 525.973801,38.4504505 525.973801,30.6735307 C525.973801,18.1587302 516.941097,8.72072072 504.941583,8.72072072 C502.144846,8.72072072 499.310315,9.24924925 496.494681,10.3251823 C492.564132,3.88845989 485.893536,0 478.372581,0 C473.950714,0 469.604433,1.3968254 465.806162,4.05834406 L462.820456,6.13470613 C462.820456,6.13470613 460.817388,9.36250536 460.779594,9.43800944 C457.548229,8.0978121 454.014514,7.36164736 450.329624,7.36164736 C445.114087,7.36164736 439.860757,8.83397683 435.117642,11.6087516 C433.738171,12.2505363 432.377596,13.005577 431.017021,13.8549979 C427.180956,10.5139425 422.229976,8.58858859 416.995542,8.58858859 C412.630365,8.58858859 407.528209,10.042042 403.144135,13.6473616 C400.460779,11.4011154 397.342796,9.36250536 393.846874,7.56928357 C387.629804,3.60531961 381.337145,1.6044616 375.157868,1.6044616 C368.26051,1.6044616 360.323824,4.34148434 354.598072,11.1746032 C349.798266,6.0969541 343.127671,3.20892321 335.644509,3.20892321 C333.131226,3.20892321 330.542354,3.52981553 327.934586,4.19047619 C327.06533,4.07722008 326.214971,4.02059202 325.364611,4.02059202 C317.27675,4.02059202 309.963661,8.73959674 306.278771,16.3466323 L305.31503,18.3474903 L304.880402,20.5371085 C302.952921,30.1450021 302.310428,39.5830116 301.856903,48.7945088 C294.600504,47.7563278 286.890581,47.1522952 278.802719,46.982411 C278.972791,46.4350064 279.142863,45.8876019 279.294038,45.3213213 C281.693941,37.015873 280.314469,28.5405405 275.47687,22.028314 C270.677065,15.5727156 263.2128,11.8730159 255.011558,11.8730159 C251.534534,11.8730159 248.038612,12.5714286 244.769453,13.9116259 L244.769453,13.9116259 C240.517657,13.9116259 236.435933,15.0630631 232.864424,17.2526813 C231.277087,16.9317889 229.614162,16.7619048 227.894547,16.7619048 C222.338867,16.7619048 216.82098,18.4607465 212.795947,19.7254397 C212.22904,19.8953239 211.189712,20.2162162 210.830672,20.3105963 L208.827603,20.7636208 L207.353647,21.4997855 C206.805638,21.6696697 205.785207,21.9339339 205.312785,22.0660661 C204.178973,22.3680824 202.875089,22.7078507 201.47672,23.1419991 C197.357202,18.3097383 191.177925,15.4028314 184.299464,15.4028314 C181.294861,15.4028314 178.384743,15.969112 175.682491,17.0827971 L165.761633,14.3457743 L165.704942,14.6855427 C163.229452,14.024882 160.602787,13.6851137 157.824947,13.6851137 C152.212576,13.6851137 146.902555,15.025311 142.216131,16.1956242 C140.175269,16.7052767 138.247788,17.1960532 136.849419,17.4225654 C128.723764,18.2531103 123.054703,20.8202488 119.105257,23.8215358 C118.708422,23.4251394 118.292691,23.028743 117.858063,22.6700987 C114.173173,19.5366795 109.467852,17.8000858 104.592459,17.8000858 C98.2242134,17.8000858 91.8937614,20.7824968 87.4718934,25.8223938 C82.4075318,22.4247104 77.3431702,21.8773059 74.5842269,21.8773059 C70.294637,21.8773059 66.5152627,22.990991 63.227207,24.7087087 C59.7690795,13.8927499 50.8308592,6.7953668 40.2864048,6.7953668 C29.0238692,6.7953668 19.3486709,14.7610468 16.0606152,26.6529387 C14.2465155,31.4096954 12.6969721,36.1098241 11.2041192,40.6778207 C10.3348631,43.3204633 9.42781326,46.0763621 8.52076342,48.6812527 L8.18061973,49.6250536 L7.95385727,50.6066066 C7.65150732,51.96568 6.55548876,54.6083226 5.59174831,56.9489489 C1.9257552,65.7640498 -4.19683124,80.5062205 4.26896729,94.3989704 L5.49726395,96.4375804 L7.23577615,98.0609181 C11.2419129,101.836122 16.4574495,103.912484 21.9186455,103.912484 C23.6760545,103.912484 25.4334636,103.704848 27.1341821,103.270699 C29.2884254,105.214929 31.8584,106.725011 34.7307245,107.72544 L34.7307245,112.0858 C25.6413292,112.991849 17.3078088,119.617332 14.3598968,128.507937 C10.2403787,140.15444 9.14436019,151.310167 8.08613537,162.088374 C7.89716666,164.108108 7.68930107,166.18447 7.46253861,168.241956 L7.3302605,169.374517 L7.3302605,170.525955 C7.36805425,171.243243 7.16018866,172.923209 6.99011681,174.282282 C6.27203569,180.039468 5.17601713,188.760189 9.88133818,197.405405 L10.7505943,199.009867 L11.9222003,200.387816 C16.1362027,205.333333 22.3721704,208.183612 29.0049723,208.183612 C36.5259273,208.183612 43.2910074,204.710425 47.4483191,199.085371 C52.3992995,198.802231 56.8778581,196.914629 60.5438512,193.705706 C63.227207,195.800944 66.609747,197.499785 70.7670588,198.009438 L70.9749244,198.009438 C71.9764586,198.14157 72.9968897,198.198198 73.9984239,198.198198 C84.9586095,198.198198 93.8212423,191.365079 97.109298,180.341484 C98.7344289,174.886315 98.7722227,169.204633 98.7911196,165.448305 C98.7911196,165.448305 98.7911196,164.938653 98.7911196,164.731017 L125.719162,164.731017 C125.435709,168.959245 125.227843,173.074217 125.057771,177.113685 C124.736524,183.437151 126.909665,189.420849 131.180358,193.932218 C135.602226,198.613471 141.932678,201.293865 148.56548,201.293865 C153.762119,201.293865 158.618615,199.689404 162.530268,196.858001 C166.045086,199.085371 170.183501,200.312312 174.567575,200.312312 C178.365846,200.312312 182.107427,199.368511 185.452173,197.650794 C186.774954,198.273702 188.154426,198.783355 189.609485,199.198627 L190.988957,199.576148 L192.406222,199.727156 C193.44555,199.840412 194.503775,199.89704 195.524206,199.89704 C202.043627,199.89704 207.88276,197.480909 212.210144,193.214929 C214.307696,194.271986 216.556424,195.140283 218.918533,195.744316 L219.882273,195.989704 L220.864911,196.140712 C222.867979,196.423852 224.908841,196.574861 226.930807,196.574861 C248.870075,196.574861 265.0269,180.114972 272.717927,170.299442 L272.925792,170.054054 L273.114761,169.78979 C273.832842,168.808237 274.475336,167.75118 275.023345,166.675247 C282.5443,166.675247 289.725111,166.27885 296.471294,165.542686 C296.716954,167.543544 297.019304,169.374517 297.416138,171.054483 C299.286928,179.265551 303.217478,185.041613 309.132198,188.250536 L310.171526,188.816817 L311.286442,189.232089 C314.404426,190.402402 317.616894,191.006435 320.829362,191.006435 C330.183314,191.006435 336.929497,186.28743 341.578127,181.209781 C347.927476,187.816388 355.108287,191.157443 363.00718,191.157443 C365.652742,191.157443 369.129766,190.723295 372.890244,189.137709 C374.950003,190.534535 377.236524,191.610468 379.730911,192.327756 L381.979639,192.969541 L384.322851,193.007293 C384.492923,193.007293 384.662995,193.007293 384.851963,193.007293 C386.836135,193.007293 390.124191,192.799657 393.790184,191.893608 L393.790184,213.317889 C393.790184,217.017589 396.794786,220 400.479676,220 L489.31387,220 C493.017657,220 496.003363,216.998713 496.003363,213.317889 L496.003363,189.364221 C496.003363,188.23166 495.701013,187.193479 495.209694,186.249678 C498.270987,184.399828 500.992137,182.380094 503.39204,180.605749 C504.790408,179.567568 506.132086,178.567139 507.228105,177.84985 L508.985514,176.698413 L510.005945,175.603604 C510.497263,175.244959 511.404313,174.659803 511.820044,174.376662 C516.61985,171.224367 524.632123,165.920206 526.597398,155.821536 C527.750107,149.932218 526.408429,143.835264 522.818024,138.625483 L522.742436,138.682111 Z" id="Path" fill="#381116"></path>
                    <g id="Group" transform="translate(52.000000, 65.000000)" fill="#EE2842">
                        <polygon id="Path" points="0 1.95162728 77.1670052 1.95162728 96.1610881 39.7336157 96.2177868 47.5780205 96.2177868 1.95162728 140.21602 1.95162728 140.21602 83.010477 66.4887397 83.010477 44.2439283 42.4810522 43.9982337 51.9739189 43.9982337 83.010477 0 83.010477"></polygon>
                        <path d="M145.375607,42.0073562 C145.375607,16.3898796 174.008478,0 222.296918,0 C270.585357,0 299.218228,16.3898796 299.218228,42.0073562 C299.218228,67.6248328 271.209044,85 222.296918,85 C173.384792,85 145.375607,68.2501115 145.375607,42.0073562 L145.375607,42.0073562 Z M240.478318,42.2536781 C240.478318,36.2093179 233.220878,32.2681676 222.296918,32.2681676 C211.372958,32.2681676 204.115517,36.2093179 204.115517,42.2536781 C204.115517,48.2980383 211.372958,52.7318324 222.296918,52.7318324 C233.220878,52.7318324 240.478318,48.5443602 240.478318,42.2536781 L240.478318,42.2536781 Z" id="Shape"></path>
                        <polygon id="Path" points="337.678884 38.066206 303.149342 38.066206 303.149342 1.97057512 428 1.97057512 428 38.066206 393.470458 38.066206 393.470458 83.0294249 337.678884 83.0294249 337.678884 38.066206"></polygon>
                    </g>
                    <g id="Group" transform="translate(18.000000, 17.000000)" fill="#FFFFFF">
                        <path d="M309.591338,52.984704 C309.9505,47.6269492 310.177339,42.2503291 310.385274,36.8737089 C310.763339,36.9114396 311.141404,36.8925743 311.538372,36.8171129 C324.770639,30.4972261 351.329688,28.8370767 328.324447,47.0421238 C323.14496,50.6642679 317.681924,53.9845667 311.595082,55.8145041 C307.398563,57.0407508 297.190814,57.7764988 303.164238,64.1718469 C316.320891,66.0583803 335.054,54.0788933 342.634199,43.5331718 C352.066914,27.950406 335.829033,22.9133619 322.955928,26.0450073 C330.101352,17.3669538 328.853738,-0.290998657 314.090309,3.89710545 C312.937212,4.19895079 311.746308,4.61398813 310.612113,5.14221748 C308.797402,3.63299077 306.150949,3.46320277 304.676497,6.50052151 C301.670882,21.4984619 302.143463,37.1189583 300.876946,52.3432826 C300.479978,57.7576334 309.175467,58.4179201 309.591338,53.0035693 L309.591338,52.984704 Z M310.687726,28.9691341 C310.914565,23.3849953 311.17921,17.8197218 311.632888,12.2544483 C325.923736,4.44420013 318.211215,22.9133619 310.687726,28.9691341 Z" id="Shape"></path>
                        <path d="M81.7317076,24.950818 C79.5578352,31.5348195 77.0626078,37.9301676 74.1137027,44.2123238 C73.5277023,46.5516252 71.0135716,50.5888066 68.7451831,54.7769107 C68.5561507,53.7393173 68.3671183,52.7205893 68.1213762,51.7207266 C66.6469237,44.1179971 66.4767945,36.2700182 64.3596319,28.8182114 C57.9892407,12.8958697 45.8155554,27.89381 43.2258118,37.7603796 C39.5396804,38.3074743 35.7401295,38.854569 31.9594819,39.590317 C31.5814172,27.9315407 30.2770937,17.0085124 29.3508351,13.820271 C27.195866,3.65185611 17.4228919,5.06675614 15.286826,14.4239617 C12.4324371,21.8191726 10.1640485,29.4219021 7.55540167,36.8925743 C5.45714225,46.2120492 -3.78654113,58.6820348 1.73320436,67.6996644 C6.51572358,72.1896138 12.7726954,57.2860001 13.6611475,55.3428707 C16.2508911,53.1922227 19.1430866,51.6075346 22.2054111,50.3812879 C21.9785723,54.399604 21.6194107,58.4179201 21.1279266,62.4173709 C20.5608294,66.3413603 18.0277955,72.4537285 23.623154,73.7554365 C29.9368355,75.0571445 31.9216755,61.9457375 32.0539981,47.5703532 C35.0218065,46.9477972 38.0274213,46.4761638 40.9574232,45.9479345 C40.1067775,51.5320733 35.6834198,71.1897511 47.0442659,64.6812109 C49.6907192,60.3421842 48.6132346,54.4939307 49.3126544,49.5700786 C50.4090422,43.5143064 52.2615595,37.3642076 55.9287877,32.3460288 C58.8965961,44.2311891 57.1196917,58.0406134 63.9059542,68.6240657 C65.5127294,70.6049258 67.9890536,70.5671951 69.8226676,69.4730057 C74.9076387,68.6806617 75.247897,59.8894162 77.95106,56.0408881 C82.9037083,45.0235331 87.327066,33.7420635 90.2381647,22.0078259 C89.9924226,13.8957324 80.4084809,18.8761805 81.7317076,24.9319526 L81.7317076,24.950818 Z M14.3605673,45.3442438 C16.8368915,38.7791076 19.2754092,32.2139715 21.4870881,25.5545086 C22.1297982,31.0065901 22.43225,36.4775369 22.43225,41.9673491 C19.6345708,42.8728851 16.9314077,43.9670744 14.3605673,45.3442438 Z" id="Shape"></path>
                        <path d="M270.272603,48.1174479 C257.75866,47.4571612 244.772135,48.2306399 232.825289,43.9482091 C236.870582,37.0246316 242.881812,31.0065901 244.942265,23.0831499 C247.872266,13.4052337 237.702324,8.31159356 230.594707,14.782403 C220.935152,10.2169923 219.422893,25.1960673 218.024054,31.5159541 C215.547729,38.628185 213.222631,46.3441065 212.655534,54.003432 C211.426824,52.47534 209.252951,52.0603026 207.419337,52.814916 C201.275785,55.2862747 194.962103,58.0783441 188.270357,58.4933815 C188.081325,56.7011747 188.270357,53.89024 188.610615,50.6076719 C192.655908,49.6455399 198.497009,46.1743185 202.561205,46.0799918 C207.702886,45.1744558 205.982691,37.5339956 201.011139,38.571589 C198.799461,39.1752796 193.71449,40.1751423 189.57468,41.797561 C189.971648,37.8358409 190.255197,33.8929862 190.085068,30.6858794 C197.022556,28.3843087 204.11127,25.686566 211.389017,24.1962046 C212.334179,23.9698206 213.222631,23.4981873 213.865341,22.6303819 C217.47586,12.0469296 202.050817,18.8007191 197.268298,19.8760432 C194.678555,21.1777512 189.707003,21.8191726 186.209904,23.4415913 C184.300677,23.4038606 181.559707,24.8753566 177.66564,28.5163661 C175.567381,29.4030367 173.450218,30.2331114 171.314152,31.0065901 C171.427572,27.1769274 171.522088,23.3661299 171.616604,19.5364672 C171.408669,14.4239617 163.261373,13.820271 162.316211,18.8195845 C162.316211,18.8195845 162.316211,18.8195845 162.297308,18.8195845 C161.408856,23.9320899 161.276533,29.1577874 160.974081,34.3457542 C157.552595,35.3456169 154.112206,36.2511529 150.69072,37.1189583 C150.728526,33.0629115 150.596204,29.0068647 150.142526,24.9696833 C149.443106,6.67030951 132.82716,15.6879391 121.541927,17.2726271 C110.010952,18.3290858 108.234047,24.3659926 110.426823,27.780618 C109.311532,27.5730994 108.139531,27.780618 106.948627,28.6106927 C95.7012005,21.1966165 86.136162,69.4918711 100.540429,69.0579684 C112.22263,68.359951 121.863282,46.0045305 117.477731,35.1946942 C116.853924,33.5911408 115.738633,31.6480115 114.301987,30.1387848 C115.946568,30.2897074 117.836892,29.6482861 119.670506,27.8560794 C121.258378,27.497638 122.84625,27.158062 124.415219,26.818486 C124.150574,28.3843087 123.980445,30.2142461 123.942638,32.3082981 C122.751734,43.2690571 121.806572,54.2486814 121.371798,65.2660363 C121.012636,71.2652124 130.672191,71.8311725 131.031352,65.869727 C131.749675,52.2300906 131.730772,38.4772623 133.904644,24.9696833 C133.923548,24.9319526 133.942451,24.894222 133.980257,24.8564913 C135.794968,24.4791846 137.628582,24.1018779 139.443293,23.7057059 C140.936649,34.7230609 139.121938,45.8536078 138.611551,56.8898281 C138.422518,59.8894162 140.804326,62.3985056 143.772135,62.6437549 C152.03285,62.7946776 149.575429,52.4376093 150.369365,46.9855278 C150.407171,46.3252412 150.426074,45.6838198 150.463881,45.0235331 C153.771948,44.2877851 157.098918,43.4577104 160.406984,42.5333091 C160.010016,47.7401412 159.556338,52.9469733 158.838015,58.1349401 C157.87395,61.2477202 159.367306,64.8509989 162.788792,65.473555 C173.091057,67.0205123 169.707377,46.8723358 171.06841,40.3449303 C171.06841,39.929893 171.087314,39.533721 171.106217,39.1186836 C174.830155,37.7792449 178.497383,36.2700182 182.032288,34.5910035 C182.845128,43.3822491 174.168541,63.0399269 185.264742,66.4545523 C189.007583,67.907183 207.910821,63.9265976 212.579921,58.5877081 C212.617728,59.7762242 212.69334,60.9458749 212.825663,62.1155255 C213.903148,65.303767 218.194183,66.3036296 220.708313,64.2095776 C224.942639,59.1348028 224.129799,51.4000159 225.547542,45.1933211 C228.836706,56.5125214 259.459951,54.5505267 269.705506,56.1540801 C275.149639,56.6823094 275.754542,48.3815625 270.329313,48.0985825 L270.272603,48.1174479 Z M101.409978,61.6061615 C99.2739125,55.4560627 101.71243,41.5900424 103.583851,35.5720009 C103.583851,35.5720009 103.583851,35.5720009 103.583851,35.5720009 C103.961915,35.8172502 104.39669,35.9681729 104.869271,36.0059036 C105.73882,36.0813649 106.627272,35.7040582 107.213272,35.0626369 C114.793471,40.2317383 107.969402,58.6820348 101.409978,61.6061615 L101.409978,61.6061615 Z M226.133543,40.7411024 C226.303672,39.6091823 226.454898,38.4772623 226.625027,37.3453423 C226.795156,29.9312661 230.632513,22.8379006 237.475485,19.3289485 C236.56813,27.4787727 229.668448,33.5722755 226.133543,40.7411024 Z" id="Shape"></path>
                        <path d="M346.055685,57.5689801 C345.828846,63.3229069 355.582917,63.6813483 355.771949,57.9274214 C355.866465,52.8337813 355.809755,47.7212759 355.715239,42.6276357 C360.573371,51.1736319 374.883123,54.73918 382.198676,60.8704135 C386.54642,64.4359616 392.689973,57.9462868 388.039776,54.343008 C380.176029,47.9665252 368.059054,46.4007025 362.482598,37.5151303 C382.898095,32.6290088 388.134292,15.2540364 367.737699,5.29314015 C356.83053,-2.0454747 348.664331,1.99170673 347.208782,14.612615 C346.96304,15.6502084 347.265492,16.6689364 347.870395,17.4801458 C347.700266,20.4042725 347.775879,23.4038606 347.360008,26.1204687 C346.811814,36.5907289 346.509362,47.0987198 346.074588,57.5689801 L346.055685,57.5689801 Z M367.435247,26.4977753 C363.881438,28.8559421 358.550725,29.2898447 355.564013,32.3460288 C355.526207,27.950406 355.564013,23.5736486 355.715239,19.1780258 C358.248273,18.3479511 357.832402,15.7822657 357.284208,13.7825404 C357.322014,12.7826777 357.151885,11.6884883 356.773821,10.7074909 C356.925046,10.2358576 357.095176,9.80195493 357.303111,9.40578292 C364.146083,11.5375656 378.153383,20.1401578 367.416344,26.4977753 L367.435247,26.4977753 Z" id="Shape"></path>
                        <path d="M413.04876,56.5125214 C421.158249,59.6253015 429.872642,56.8143667 437.301614,53.1167613 C441.044456,51.2868239 447.981944,48.8154652 444.86291,43.4954411 C439.777939,36.7793823 427.944512,49.5134826 420.099668,48.0419865 C410.402307,47.9665252 416.980634,34.6664649 418.814248,29.4219021 C421.74425,23.4793219 426.413349,18.3668165 432.519095,15.6313431 C427.245092,18.7252578 431.819675,25.743162 436.564388,21.9134992 C447.37704,12.9336003 436.432065,2.74632008 425.940768,9.65103225 C411.990179,15.1785751 394.48578,48.1363132 413.04876,56.4936561 L413.04876,56.5125214 Z" id="Path"></path>
                        <path d="M459.720855,50.8717866 C459.834274,47.6646799 460.004403,44.4387078 460.231242,41.231601 C465.637568,46.2309145 475.86422,50.6076719 482.46145,54.5882574 C488.35926,57.9085561 493.860103,48.7777346 487.603131,45.5517625 C480.703449,42.0994064 473.652541,38.8357036 467.036408,34.8551182 C473.387896,30.6104181 479.474738,26.0072767 484.956677,20.6683872 C491.969779,21.4984619 494.238167,5.51952415 485.107903,9.29259091 C479.285706,13.933463 474.276348,19.6307938 467.92486,23.7057059 C465.221697,25.007414 463.085631,26.2902567 461.422146,27.5353687 C462.064856,21.3098085 462.858792,15.0842484 463.747244,8.91528424 C467.244343,5.38746682 463.671631,-2.68689605 458.548854,0.897517373 C453.766335,8.63230423 454.522464,19.1780258 452.764463,28.0258674 C452.04614,36.0813649 450.099107,44.1557278 450.685107,52.248956 C451.554656,57.7953641 460.722726,56.5502521 459.739758,50.8717866 L459.720855,50.8717866 Z" id="Path"></path>
                        <path d="M13.4532119,116.523148 C9.25669309,128.219655 8.72740242,139.991623 7.36636929,152.49934 C7.49869195,158.592843 4.75772244,165.874861 7.76333729,171.383539 C10.4475971,174.53405 16.553343,172.817304 16.6478591,168.497143 C17.1204401,154.065162 17.8009567,139.557721 19.8236031,125.238932 C24.3603803,124.484319 23.1316698,117.76826 22.8859277,114.410231 C20.768765,109.542975 14.6630192,112.504832 13.4532119,116.485418 L13.4532119,116.523148 Z" id="Path"></path>
                        <path d="M53.5469797,141.972484 C50.9572361,138.180551 47.0253626,125.40872 42.0727143,119.277487 C42.3184564,115.976054 41.7891657,113.485829 39.7098095,112.919869 C37.0822594,112.10866 35.2864518,113.976328 33.9443219,117.032512 C32.8479341,118.183298 32.3375467,119.862312 32.5076758,121.352674 C30.8819974,127.502772 18.5948927,161.573565 27.6684469,163.856271 C36.3261299,165.478689 38.6890347,135.067771 39.5585836,131.634281 C44.4545222,143.19873 50.1822034,162.328179 55.4184003,162.988465 C64.6620837,164.026059 63.5656959,151.593804 63.7547283,145.443705 C63.8492444,135.822385 63.8303412,126.163334 64.8889225,116.59861 C65.2291808,113.825405 66.8926658,110.863548 64.926729,108.316728 C48.405299,96.5070291 54.3787222,134.011313 53.5469797,141.972484 L53.5469797,141.972484 Z" id="Path"></path>
                        <path d="M399.967719,54.4939307 C400.667139,41.401389 400.648236,28.1956554 402.727592,15.2351711 C406.905208,8.76436157 393.559522,1.67099606 393.162554,22.2908059 C392.028359,32.8176622 391.102101,43.3445184 390.68623,53.9279707 C390.345971,59.6818975 399.608558,60.2289922 399.967719,54.512796 L399.967719,54.4939307 Z" id="Path"></path>
                        <path d="M242.484844,116.013784 C241.104907,113.429233 237.588905,112.240717 234.942452,113.617887 C225.94451,118.221028 217.36244,123.597648 208.440112,128.351713 C208.629144,119.503871 208.496822,110.486241 205.585723,107.165943 C210.084694,104.298412 215.339794,102.751455 220.443668,101.35542 C223.449283,100.657402 228.383028,100.336692 227.570189,96.054261 C224.867026,88.2440129 204.81069,99.2425025 200.122687,102.223225 C196.890234,104.072028 195.302362,107.279135 195.58591,110.052339 C193.487651,113.542425 190.179584,115.919458 186.550162,117.956914 C186.625775,115.334632 186.682485,112.712351 186.720291,110.108935 C186.625775,107.335731 187.173969,104.392739 185.926355,101.808188 C183.922612,97.7521411 177.268672,98.5444851 176.399124,103.015569 C175.832026,107.562115 175.6808,112.165256 175.227123,116.749532 C175.056994,119.258622 174.886864,121.767711 174.735639,124.2768 C174.281961,124.55978 173.847186,124.861626 173.412412,125.182336 C169.348216,127.597099 165.151697,129.370441 160.766146,130.596687 C160.652726,125.635104 160.55821,120.692387 160.388081,115.74967 C160.010016,111.052201 160.709436,105.60012 157.628208,101.657265 C153.356076,95.205321 113.413534,105.996292 114.131858,113.655617 C114.301987,116.164707 121.050443,114.93846 128.933093,113.033061 C128.555028,115.070518 128.309286,117.466415 128.252576,120.27735 C126.81593,133.596275 125.643929,146.952932 125.114639,160.328453 C124.679864,167.629337 136.418775,168.327355 136.85355,161.064201 C137.742002,144.481573 137.704195,127.766887 140.350649,111.354047 C140.634197,110.920144 140.861036,110.467376 141.012262,110.033473 C144.774006,109.127937 148.157686,108.448785 150.482784,108.335593 C151.692591,125.880354 149.121751,143.632633 152.089559,161.083067 C154.244529,168.91218 165.756601,164.403365 162.524147,156.989289 C161.90034,152.348417 161.503372,147.669814 161.238727,142.991212 C165.529762,142.368656 169.669571,140.897159 173.714864,138.991761 C173.601444,140.387795 173.506928,141.78383 173.393509,143.19873 C174.130735,150.065712 167.495698,162.082929 176.890608,164.724076 C187.230679,165.874861 184.735451,152.197494 185.66171,145.556897 C185.794033,141.048082 185.964162,136.558133 186.134291,132.049318 C189.291132,130.125054 192.410166,128.219655 195.510297,126.559506 C195.453587,138.199417 190.841197,157.272269 205.925981,161.215124 C220.254636,163.271445 233.165547,152.53707 241.464069,141.934753 C246.152072,135.463943 235.812001,128.332847 230.934965,134.199966 C225.320703,140.538718 218.00515,147.330238 209.252951,148.25464 C208.515725,146.707682 208.288886,143.708094 208.269983,139.972758 C218.874699,136.388345 233.373483,125.503047 240.065229,123.220342 C242.692779,121.862038 243.959296,118.749258 242.541553,116.03265 L242.484844,116.013784 Z" id="Path"></path>
                        <path d="M361.49963,98.6576771 C346.20691,95.5071664 352.747431,136.350614 344.92149,145.217321 C336.660775,137.25615 336.433936,123.163746 327.001221,116.391091 C315.413536,111.410643 311.500566,137.199554 305.186884,143.953344 C304.185012,130.46463 304.903335,116.824994 306.68024,103.430607 C311.576178,101.07244 306.831466,90.8851596 302.086753,95.5260317 C297.058492,102.449609 292.238166,151.027844 300.045203,155.253679 C312.842695,160.083204 318.683796,136.388345 324.222445,128.389443 C339.156003,169.742255 358.626338,162.384775 361.783179,121.69225 C361.234985,114.561154 370.384152,102.600532 361.518533,98.6765424 L361.49963,98.6576771 Z" id="Path"></path>
                        <path d="M490.967907,130.992859 C485.353645,123.899494 467.471182,147.217046 458.548854,148.386697 C457.528079,139.859566 458.170789,126.050142 458.340918,117.48528 C457.660402,112.825543 461.875824,99.9782505 453.596206,101.808188 C451.082075,104.581392 448.889299,120.541464 449.135041,134.633869 C447.358137,133.784929 445.146458,133.879255 443.539683,135.709193 C439.343164,140.123681 434.106967,143.821286 428.076834,145.160725 C422.500379,133.256699 429.702513,118.145567 424.882187,106.354733 C421.63083,102.902377 416.810504,106.184945 416.526956,110.297588 C415.73302,117.48528 410.950501,121.390404 405.22282,124.125878 C405.05269,121.220616 404.863658,118.33422 404.617916,115.447824 C404.901464,96.8654704 395.29862,87.3384768 382.727966,105.694447 C377.756415,113.599021 352.709624,153.744452 367.132795,157.894825 C370.989056,157.951421 378.455835,156.649713 377.624092,151.442881 C377.246027,149.763866 375.884994,148.556485 374.297122,148.179178 C375.582542,148.065986 376.811253,147.462296 377.737511,146.122857 C383.181644,143.330788 388.947132,141.048082 394.674813,138.708781 C394.807135,143.330788 394.920555,147.97166 395.090684,152.593666 C395.279716,157.328865 401.971463,159.253129 404.958174,155.763043 C407.547918,152.480474 405.827723,147.839602 406.092368,143.991074 C405.960046,140.65191 405.846626,137.293881 405.6954,133.954717 C409.570564,132.124779 413.313405,130.106189 416.829408,127.710291 C416.905021,136.859978 414.825664,152.235225 426.829221,154.423604 C435.58142,154.423604 443.501876,149.160176 449.569816,143.142134 C450.307042,149.99025 451.876011,155.385736 454.61698,156.876097 C464.427761,159.083341 472.556153,150.631672 480.098545,145.651224 C483.86029,141.595177 495.5992,137.803245 490.911197,131.011725 L490.967907,130.992859 Z M378.474738,135.426213 C382.520031,126.370852 387.491582,117.692799 393.181457,109.599571 C393.786361,115.843996 394.126619,122.107287 394.372361,128.370578 C389.079454,130.709879 383.729838,132.992585 378.474738,135.407347 L378.474738,135.426213 Z" id="Shape"></path>
                    </g>
                    <g id="Group" transform="translate(399.000000, 185.000000)" fill="#FFFFFF">
                        <path d="M18.7053172,0 L18.7053172,4.90097629 L11.4890527,4.90097629 L11.4890527,27.9609484 L7.17828418,27.9609484 L7.17828418,4.90097629 L0,4.90097629 L0,0 L18.7053172,0 L18.7053172,0 Z M81.8476318,10.9930265 C82.8541108,11.6178522 83.6516979,12.5160391 84.1834227,13.5899582 C84.6961573,14.6638773 84.9810098,15.8549512 85,17.0460251 L85,27.9609484 L80.6512511,27.9609484 L80.6512511,17.4755927 C80.6132708,16.3040446 80.2904379,15.4058577 79.7017426,14.7810321 C79.075067,14.1171548 78.1635389,13.7852162 76.9861483,13.7852162 C75.6568365,13.7852162 74.6123771,14.2343096 73.8717605,15.1520223 C73.1881144,15.9916318 72.808311,17.1631799 72.7703307,18.6080893 L72.7703307,27.9218968 L68.4025916,27.9218968 L68.4025916,10.153417 L72.69437,10.153417 L72.69437,11.9497908 C72.69437,12.3012552 72.9602324,12.5746165 73.2830652,12.5941423 L73.3020554,12.5941423 C73.3020554,12.5941423 73.3970063,12.3988842 73.3970063,12.3988842 C73.7578195,11.7740586 74.2515639,11.2468619 74.8592493,10.8368201 C75.6188561,10.2705718 76.7772565,9.9972106 78.3154602,9.9972106 L78.3154602,9.9972106 C79.5498213,9.9776848 80.7651921,10.2900976 81.8286416,10.9344491 L81.8476318,10.9930265 Z M33.8404826,10.8563459 C34.5241287,11.2273361 35.1128239,11.7545328 35.5875782,12.3988842 C35.8534406,12.7503487 36.0813226,13.1408647 36.2522341,13.5509066 L36.2902145,13.6680614 L36.3661752,13.6680614 L36.3661752,10.2119944 L40.714924,10.2119944 L40.714924,28 L36.3661752,28 L36.3661752,24.7196653 L36.2902145,24.7196653 C36.1003128,25.1297071 35.8534406,25.5202232 35.568588,25.8716876 C35.0748436,26.4769874 34.4671582,26.9456067 33.7835121,27.2970711 C32.9859249,27.7266388 31.9604558,27.9609484 30.6881144,27.9414226 C28.3333333,27.9414226 26.6621984,27.1213389 25.6747096,25.5006974 C24.6872207,23.8800558 24.1744861,21.7322176 24.1744861,19.1157601 C24.1744861,16.460251 24.6872207,14.292887 25.6936997,12.6527197 C26.7001787,11.0320781 28.3333333,10.2119944 30.6121537,10.1924686 L30.6881144,10.1924686 C30.6881144,10.1924686 30.7830652,10.1924686 30.7830652,10.1924686 C32.0743968,10.1924686 33.099866,10.4267782 33.8594727,10.8953975 L33.8404826,10.8563459 Z M21.6677837,10.153417 L23.8326631,10.153417 L23.8326631,14.2343096 L21.8956658,14.2343096 C20.9081769,14.1757322 19.9586685,14.488145 19.1800715,15.1129707 C18.5154155,15.679219 18.1735925,16.4993026 18.116622,17.6122734 L18.116622,27.9609484 L13.7488829,27.9609484 L13.7488829,10.1924686 L18.116622,10.1924686 L18.116622,12.2817294 L18.2875335,12.2817294 C18.5723861,11.5202232 19.123101,10.8953975 19.8637176,10.5634589 C20.4144325,10.2705718 21.0411081,10.1143654 21.6677837,10.153417 L21.6677837,10.153417 Z M47.3424933,10.1924686 L47.3424933,27.9609484 L42.9937444,27.9609484 L42.9937444,10.1924686 L47.3424933,10.1924686 Z M63.0093834,10.9539749 C64.0158624,11.5788006 64.8134495,12.4769874 65.3451743,13.5509066 C65.8579088,14.6248257 66.1427614,15.8158996 66.1617516,17.0069735 L66.1617516,27.9609484 L61.8130027,27.9609484 L61.8130027,17.4560669 C61.7750223,16.2845188 61.4521895,15.3863319 60.8634942,14.7615063 C60.2368186,14.097629 59.3252904,13.7656904 58.1478999,13.7656904 C56.818588,13.7656904 55.7741287,14.2147838 55.0335121,15.1324965 C54.349866,15.972106 53.9700626,17.1436541 53.9320822,18.6080893 L53.9320822,27.9414226 L49.5643432,27.9414226 L49.5643432,10.1729428 L53.8561215,10.1729428 L53.8561215,11.9497908 C53.8561215,12.125523 53.913092,12.2817294 54.0460232,12.3988842 C54.1599643,12.5160391 54.2928954,12.5746165 54.4448168,12.5941423 L54.4827971,12.5941423 C54.4827971,12.5941423 54.577748,12.3988842 54.577748,12.3988842 C54.9385612,11.7740586 55.4323056,11.2468619 56.0399911,10.8368201 C56.7995979,10.2705718 57.939008,9.9972106 59.4772118,9.9972106 L59.4772118,9.9972106 C60.7115728,9.9776848 61.9269437,10.2900976 62.9903932,10.9344491 L63.0093834,10.9539749 Z M32.5301609,13.8437936 C31.4667113,13.8437936 30.650134,14.0781032 30.0614388,14.5662483 C29.4727435,15.0348675 29.0549598,15.6987448 28.8270777,16.4211994 C28.5802055,17.2608089 28.4662645,18.1589958 28.4852547,19.0376569 C28.4852547,19.916318 28.5991957,20.7949791 28.8270777,21.6541144 C29.0359696,22.3960948 29.4537534,23.0404463 30.0614388,23.5090656 C30.650134,23.9776848 31.4667113,24.2119944 32.5301609,24.2119944 C34.0493744,24.2119944 35.0938338,23.7043236 35.6065684,22.7085077 C36.1762735,21.5760112 36.4421358,20.306834 36.4041555,19.0181311 C36.4041555,17.4755927 36.1382931,16.2259414 35.5875782,15.2691771 C35.0368633,14.3124128 34.0113941,13.8437936 32.5111707,13.8437936 L32.5301609,13.8437936 Z" id="Shape"></path>
                        <path d="M47.6083557,0 L47.8362377,0.273361227 C48.9566577,1.58158996 49.431412,2.88981869 49.2984808,4.19804742 C49.1655496,5.52580195 48.5008937,6.67782427 47.3235031,7.65411437 C46.6018767,8.29846583 45.6903485,8.70850767 44.74084,8.80613668 C43.8672922,8.92329149 42.9937444,8.57182706 42.4050492,7.90794979 C41.8543342,7.26359833 41.6644325,6.38493724 41.9113047,5.56485356 C42.1581769,4.78382148 42.7088919,4.06136681 43.506479,3.39748954 L47.5893655,0 L47.6083557,0 Z M46.0891421,4.21757322 L43.9622431,5.9748954 C43.5824397,6.24825662 43.2975871,6.63877266 43.1266756,7.08786611 C42.9937444,7.51743375 43.0886953,7.9665272 43.392538,8.29846583 C43.6963807,8.64993026 44.1521448,8.82566248 44.5889187,8.76708508 C45.0826631,8.70850767 45.5574173,8.49372385 45.9372207,8.14225941 L45.9372207,8.14225941 C46.5069258,7.73221757 46.8677391,7.08786611 46.9626899,6.36541144 C47.0386506,5.68200837 46.7727882,4.9986053 46.2030831,4.33472803 L46.0891421,4.19804742 L46.0891421,4.21757322 Z" id="Shape"></path>
                    </g>
                </g>
            </g>
        </g>
    </g>
</svg>