<?xml version="1.0" encoding="UTF-8"?>
<svg width="247px" height="100px" viewBox="0 0 247 100" version="1.1" xmlns="http://www.w3.org/2000/svg" xmlns:xlink="http://www.w3.org/1999/xlink">
    <title>Trainn-sticker-type</title>
    <g id="Page-1" stroke="none" stroke-width="1" fill="none" fill-rule="evenodd">
        <g id="Work-In-Progress-Copy-4" transform="translate(-597.000000, -3076.000000)">
            <g id="Group-12" transform="translate(206.000000, 3076.000000)">
                <g id="Trainn-sticker-type" transform="translate(391.000000, 0.000000)">
                    <path d="M239.777202,93.1239796 C239.806012,93.056756 239.825218,92.9895323 239.854029,92.9223087 C239.882839,92.855085 239.902046,92.7878613 239.930856,92.7206377 C239.959666,92.653414 239.978873,92.5861903 240.007683,92.5189667 C240.036493,92.451743 240.0557,92.3845194 240.08451,92.3172957 C240.11332,92.250072 240.132527,92.1828484 240.161337,92.1156247 C240.190147,92.048401 240.209354,91.9811774 240.238164,91.9139537 C240.266974,91.84673 240.286181,91.7795064 240.314991,91.7122827 C240.343801,91.6450591 240.363008,91.5778354 240.391818,91.5106117 C240.420628,91.4433881 240.439835,91.3761644 240.468645,91.3089407 C240.497455,91.2417171 240.516662,91.1744934 240.545472,91.1072698 C240.574282,91.0400461 240.593489,90.9728224 240.622299,90.9055988 C240.651109,90.8383751 240.670316,90.7711514 240.699126,90.7039278 C240.727936,90.6367041 240.747143,90.5694805 240.775953,90.5022568 C240.804763,90.4350331 240.833573,90.3678095 240.85278,90.3005858 C240.88159,90.2333621 240.900797,90.1661385 240.929607,90.0989148 C240.958417,90.0316912 240.977624,89.9644675 241.006434,89.8972438 C241.035244,89.8300202 241.054451,89.7627965 241.083261,89.6955728 C241.112071,89.6283492 241.131278,89.5611255 241.160088,89.4939019 C241.188898,89.4266782 241.217709,89.3594545 241.236915,89.2922309 C241.265726,89.2250072 241.294536,89.1577835 241.313742,89.0905599 C241.342553,89.0233362 241.361759,88.9561126 241.390569,88.8888889 C241.41938,88.8216652 241.438586,88.7544416 241.467397,88.6872179 C241.496207,88.6199942 241.515413,88.5527706 241.544224,88.4855469 C241.573034,88.4183232 241.59224,88.3510996 241.621051,88.2838759 C241.649861,88.2166523 241.669068,88.1494286 241.697878,88.0822049 C241.726688,88.0149813 241.745895,87.9477576 241.774705,87.8805339 C241.803515,87.8133103 241.822722,87.7460866 241.851532,87.678863 C241.880342,87.6116393 241.899549,87.5444156 241.928359,87.477192 C241.957169,87.4099683 241.976376,87.3427446 242.005186,87.275521 C242.033996,87.2082973 242.053203,87.1410737 242.082013,87.07385 C242.110823,87.0066263 242.139633,86.9394027 242.15884,86.872179 C242.18765,86.8049553 242.206857,86.7377317 242.235667,86.670508 C242.264477,86.6032844 242.293287,86.5360607 242.312494,86.468837 C242.341304,86.4016134 242.360511,86.3343897 242.389321,86.267166 C242.418131,86.1999424 242.446941,86.1327187 242.466148,86.0654951 C242.494958,85.9982714 242.514165,85.9310477 242.542975,85.8638241 C242.571785,85.7966004 242.600595,85.7293767 242.619802,85.6621531 C242.648612,85.5949294 242.667819,85.5277058 242.696629,85.4604821 C242.725439,85.3932584 242.744646,85.3260348 242.773456,85.2588111 C242.802266,85.1915874 242.821473,85.1243638 242.850283,85.0571401 C242.879093,84.9899165 242.8983,84.9226928 242.92711,84.8554691 C242.95592,84.7882455 242.975127,84.7210218 243.003937,84.6537981 C243.032748,84.5865745 243.051954,84.5193508 243.080764,84.4521271 C243.109575,84.3849035 243.128781,84.3176798 243.157591,84.2504562 C243.186402,84.1832325 243.205608,84.1160088 243.234419,84.0487852 C243.263229,83.9815615 243.292039,83.9143378 243.311246,83.8471142 C243.340056,83.7798905 243.359262,83.7126669 243.388073,83.6454432 C243.416883,83.5782195 243.445693,83.5109959 243.4649,83.4437722 C243.49371,83.3765485 243.512917,83.3093249 243.541727,83.2421012 C243.570537,83.1748776 243.589744,83.1076539 243.618554,83.0404302 C243.647364,82.9732066 243.666571,82.9059829 243.695381,82.8387592 C243.724191,82.7715356 243.753001,82.7043119 243.772208,82.6370883 C243.801018,82.5698646 243.820225,82.5026409 243.849035,82.4354173 C243.877845,82.3681936 243.897052,82.3009699 243.925862,82.2337463 C243.954672,82.1665226 243.973879,82.099299 244.002689,82.0320753 C244.031499,81.9648516 244.050706,81.897628 244.079516,81.8304043 C244.108326,81.7631806 244.127533,81.695957 244.156343,81.6287333 C244.185153,81.5615097 244.20436,81.494286 244.23317,81.4270623 C244.26198,81.3598387 244.281187,81.292615 244.309997,81.2253913 C244.338807,81.1581677 244.358014,81.090944 244.386824,81.0237203 C244.415634,80.9564967 244.434841,80.889273 244.463651,80.8220494 C244.492461,80.7548257 244.511668,80.687602 244.540478,80.6203784 C244.569288,80.5531547 244.588495,80.485931 244.617305,80.4187074 C244.646115,80.3514837 244.665322,80.2842601 244.694132,80.2170364 C244.722942,80.1498127 244.742149,80.0825891 244.770959,80.0153654 C244.79977,79.9481417 244.818976,79.8809181 244.847786,79.8136944 C244.876597,79.7464708 244.895803,79.6792471 244.924613,79.6120234 C244.953424,79.5447998 244.97263,79.4775761 245.001441,79.4103524 C245.030251,79.3431288 245.049457,79.2759051 245.078268,79.2086815 C245.107078,79.1414578 245.126284,79.0742341 245.155095,79.0070105 C245.183905,78.9397868 245.203111,78.8725631 245.231922,78.8053395 C245.260732,78.7381158 245.279939,78.6708922 245.308749,78.6036685 C245.337559,78.5364448 245.356766,78.4692212 245.385576,78.4019975 C245.414386,78.3347738 245.443196,78.2675502 245.462403,78.2003265 C245.491213,78.1331029 245.51042,78.0658792 245.53923,77.9986555 C245.56804,77.9314319 245.59685,77.8642082 245.616057,77.7969845 C245.644867,77.7297609 245.664074,77.6625372 245.692884,77.5953136 C245.721694,77.5280899 245.750504,77.4608662 245.769711,77.3936426 C246.3075,76.1355997 246.614808,74.752713 246.614808,73.2929991 C246.614808,67.559781 241.947566,62.8829348 236.214347,62.8829348 C234.437722,62.8829348 232.766734,63.3342937 231.297417,64.1217709 L231.297417,51.7430135 C231.297417,51.7430135 231.27821,50.7154518 231.27821,50.7154518 L231.27821,50.6770383 C231.27821,50.6770383 231.27821,50.6386248 231.27821,50.6386248 C231.134159,46.5859983 230.221838,42.917507 228.570057,39.7195813 C226.707001,36.1087103 224.046864,33.2372995 220.647268,31.1629694 C217.257275,29.0982426 213.300682,28.0418707 208.89273,28.0418707 C204.484779,28.0418707 201.238836,28.7237107 198.569096,30.1065975 L198.569096,28.781331 L177.854605,28.781331 L177.854605,29.0118122 L177.816191,29.0118122 L177.816191,29.2422933 L177.777778,29.2422933 L177.777778,29.4727744 L177.739364,29.4727744 L177.739364,29.7032555 L177.700951,29.7032555 L177.700951,29.9337367 L177.662537,29.9337367 L177.662537,30.1642178 L177.624124,30.1642178 L177.624124,30.3946989 L177.58571,30.3946989 L177.58571,30.6251801 L177.547297,30.6251801 L177.547297,30.8556612 L177.508883,30.8556612 L177.508883,31.0861423 L177.47047,31.0861423 L177.47047,31.3166235 L177.432056,31.3166235 L177.432056,31.5471046 L177.393643,31.5471046 L177.393643,31.7775857 L177.355229,31.7775857 L177.355229,32.0080668 L177.316816,32.0080668 L177.316816,32.238548 L177.278402,32.238548 L177.278402,32.4690291 L177.239988,32.4690291 L177.239988,32.6995102 L177.201575,32.6995102 L177.201575,32.9299914 L177.163161,32.9299914 L177.163161,33.1604725 L177.124748,33.1604725 L177.124748,33.3909536 L177.086334,33.3909536 L177.086334,33.6214347 L177.047921,33.6214347 L177.047921,33.8519159 L177.009507,33.8519159 L177.009507,34.082397 L176.971094,34.082397 L176.971094,34.3128781 L176.93268,34.3128781 L176.93268,34.5145491 C175.684241,33.2180928 174.272544,32.0752905 172.707193,31.1245558 C169.307596,29.0598291 165.360607,28.0034572 160.952655,28.0034572 C156.544704,28.0034572 153.298761,28.6852972 150.629021,30.068184 L150.629021,28.7429175 L139.748391,28.7429175 C139.748391,28.7429175 139.748391,28.6564871 139.748391,28.6084702 C139.748391,28.5316431 139.748391,28.4452127 139.757995,28.3683857 C139.757995,28.2915586 139.757995,28.2051282 139.767598,28.1283012 C139.767598,28.0514741 139.767598,27.9650437 139.777202,27.8882167 C139.777202,27.8113896 139.777202,27.7249592 139.786805,27.6481321 C139.786805,27.5713051 139.786805,27.4848747 139.796408,27.4080476 C139.796408,27.3312206 139.796408,27.2447902 139.806012,27.1679631 C139.806012,27.0911361 139.806012,27.0047057 139.815615,26.9278786 C139.815615,26.8510516 139.815615,26.7646211 139.825218,26.6877941 C139.825218,26.6109671 139.825218,26.5245366 139.834822,26.4477096 C139.834822,26.3708826 139.834822,26.2844521 139.844425,26.2076251 C139.844425,26.130798 139.844425,26.0443676 139.854029,25.9675406 C139.854029,25.8907135 139.854029,25.8042831 139.863632,25.7274561 C139.863632,25.650629 139.863632,25.5641986 139.873235,25.4873716 C139.873235,25.4105445 139.873235,25.3241141 139.882839,25.247287 C139.882839,25.17046 139.882839,25.0840296 139.892442,25.0072025 C139.892442,24.9303755 139.892442,24.8439451 139.902046,24.767118 C139.902046,24.690291 139.902046,24.6038606 139.911649,24.5270335 C139.911649,24.4502065 139.911649,24.363776 139.921252,24.286949 C139.921252,24.210122 139.921252,24.1236915 139.930856,24.0468645 C139.930856,23.9700375 139.930856,23.883607 139.940459,23.80678 C139.940459,23.7299529 139.940459,23.6435225 139.950062,23.5666955 C139.950062,23.4898684 139.950062,23.403438 139.959666,23.326611 C139.959666,23.2497839 139.959666,23.1633535 139.969269,23.0865265 C139.969269,23.0096994 139.969269,22.923269 139.978873,22.8464419 C139.978873,22.7696149 139.978873,22.6831845 139.988476,22.6063574 C139.988476,22.5295304 139.988476,22.4431 139.998079,22.3662729 C139.998079,22.2894459 139.998079,22.2030155 140.007683,22.1261884 C140.007683,22.0493614 140.007683,21.962931 140.017286,21.8861039 C140.017286,21.8092769 140.017286,21.7228464 140.026889,21.6460194 C140.026889,21.5691924 140.026889,21.4827619 140.036493,21.4059349 C140.036493,21.3291078 140.036493,21.2426774 140.046096,21.1658504 C140.046096,21.0890233 140.046096,21.0025929 140.0557,20.9257659 C140.0557,20.8489388 140.0557,20.7625084 140.065303,20.6856814 C140.065303,20.6088543 140.065303,20.5224239 140.074906,20.4455969 C140.074906,20.3687698 140.074906,20.2823394 140.08451,20.2055123 C140.08451,20.1286853 140.08451,20.0422549 140.094113,19.9654278 C140.094113,19.8886008 140.094113,19.8021704 140.103717,19.7253433 C140.103717,19.6485163 140.103717,19.5620859 140.11332,19.4852588 C140.11332,19.4084318 140.11332,19.3220013 140.122923,19.2451743 C140.122923,19.1683473 140.122923,19.0819168 140.132527,19.0050898 C140.132527,18.9282627 140.132527,18.8418323 140.14213,18.7650053 C140.14213,18.6881782 140.14213,18.6017478 140.151733,18.5249208 C140.151733,18.4480937 140.151733,18.3616633 140.161337,18.2848363 C140.161337,18.2080092 140.161337,18.1215788 140.17094,18.0447518 C140.17094,17.9679247 140.17094,17.8814943 140.180544,17.8046672 C140.180544,17.7278402 140.180544,17.6414098 140.190147,17.5645827 C140.190147,17.4877557 140.190147,17.4013253 140.19975,17.3244982 C140.19975,17.2476712 140.19975,17.1612408 140.209354,17.0844137 C140.209354,17.0075867 140.209354,16.9211562 140.218957,16.8443292 C140.218957,16.7675022 140.218957,16.6810717 140.22856,16.6042447 C140.22856,16.5274177 140.22856,16.4409872 140.238164,16.3641602 C140.238164,16.2873331 140.238164,16.2009027 140.247767,16.1240757 C140.247767,16.0472486 140.247767,15.9608182 140.257371,15.8839912 C140.459042,11.8697782 139.124172,8.01882263 136.348795,4.66724287 L135.638145,3.81254201 L132.622683,0.172860847 L129.021416,3.22673581 L118.275233,12.3595506 C115.528666,14.693172 113.809661,17.2956881 113.166235,20.1094785 C112.964564,20.9833862 112.887736,21.838087 112.89734,22.6831845 C112.89734,22.7600115 112.89734,22.8368386 112.89734,22.923269 C112.89734,23.000096 112.89734,23.0769231 112.89734,23.1633535 C112.89734,23.2401805 112.89734,23.3170076 112.89734,23.403438 C112.89734,23.4802651 112.89734,23.5570921 112.89734,23.6435225 C112.89734,23.7203496 112.89734,23.7971766 112.89734,23.883607 C112.89734,23.9604341 112.89734,24.0372611 112.89734,24.1236915 C112.89734,24.2005186 112.89734,24.2773456 112.89734,24.3541727 C112.89734,24.4309997 112.89734,24.5078268 112.89734,24.5942572 C112.89734,24.6710842 112.89734,24.7479113 112.89734,24.8343417 C112.89734,24.9111687 112.89734,24.9879958 112.89734,25.0744262 C112.89734,25.1512532 112.89734,25.2280803 112.89734,25.3145107 C112.89734,25.3913378 112.89734,25.4681648 112.89734,25.5545952 C112.89734,25.6314223 112.89734,25.7082493 112.89734,25.7946797 C112.89734,25.8715068 112.89734,25.9483338 112.89734,26.0347642 C112.89734,26.1115913 112.89734,26.1884183 112.89734,26.2748487 C112.89734,26.3516758 112.89734,26.4285028 112.89734,26.5149333 C112.89734,26.5917603 112.89734,26.6685873 112.89734,26.7550178 C112.89734,26.8318448 112.89734,26.9086719 112.89734,26.9951023 C112.89734,27.0719293 112.89734,27.1487564 112.89734,27.2351868 C112.89734,27.3120138 112.89734,27.3888409 112.89734,27.4752713 C112.89734,27.5520983 112.89734,27.6289254 112.89734,27.7153558 C112.89734,27.7921828 112.89734,27.8690099 112.89734,27.9554403 C112.89734,28.0322674 112.89734,28.1090944 112.89734,28.1955248 C112.89734,28.2723519 112.89734,28.3491789 112.89734,28.4356093 C112.89734,28.4836262 112.89734,28.5412465 112.89734,28.5892634 L97.0037453,28.5892634 L97.0037453,30.7596274 C94.2379718,29.2326899 90.809565,28.4836262 86.5456641,28.4836262 C79.9865553,28.4836262 75.5978104,30.5771632 72.6687794,33.1316623 L72.6495726,33.1316623 L72.6495726,32.9011812 L72.6207625,32.9011812 L72.6207625,32.6707001 L72.5919524,32.6707001 L72.5919524,32.440219 L72.5631422,32.440219 L72.5631422,32.2097378 L72.5343321,32.2097378 L72.5343321,31.9792567 L72.5055219,31.9792567 L72.5055219,31.7487756 L72.4767118,31.7487756 L72.4767118,31.5182944 L72.4479017,31.5182944 L72.4479017,31.2878133 L72.4190915,31.2878133 L72.4190915,31.0573322 L72.3902814,31.0573322 L72.3902814,30.8268511 L72.3614712,30.8268511 L72.3614712,30.5963699 L72.3326611,30.5963699 L72.3326611,30.3658888 L72.303851,30.3658888 L72.303851,30.1354077 L72.2750408,30.1354077 L72.2750408,29.9049265 L72.2462307,29.9049265 L72.2462307,29.6744454 L72.2174205,29.6744454 L72.2174205,29.4439643 L72.1886104,29.4439643 L72.1886104,29.2134831 L72.1598002,29.2134831 L72.1598002,28.983002 L72.1309901,28.983002 L72.1309901,28.7525209 L72.10218,28.7525209 L72.10218,28.5220398 L62.0474407,28.5220398 L62.0474407,22.1934121 L62.0090272,22.1934121 L62.0090272,21.9437242 L61.9706137,21.9437242 L61.9706137,21.6940363 L61.9322001,21.6940363 L61.9322001,21.4443484 L61.8937866,21.4443484 L61.8937866,21.1946605 L61.8553731,21.1946605 L61.8553731,20.9449726 L61.8169596,20.9449726 L61.8169596,20.6952847 L61.778546,20.6952847 L61.778546,20.4455969 L61.7401325,20.4455969 L61.7401325,20.195909 L61.701719,20.195909 L61.701719,19.9462211 L61.6633055,19.9462211 L61.6633055,19.6965332 L61.624892,19.6965332 L61.624892,19.4468453 L61.5864784,19.4468453 L61.5864784,19.1971574 L61.5480649,19.1971574 L61.5480649,18.9474695 L61.5096514,18.9474695 L61.5096514,18.6977816 L61.4712379,18.6977816 L61.4712379,18.4480937 L61.4328244,18.4480937 L61.4328244,18.1984058 L61.3944108,18.1984058 L61.3944108,17.9487179 L61.3559973,17.9487179 L61.3559973,17.6990301 L61.3175838,17.6990301 L61.3175838,17.4493422 L61.2791703,17.4493422 L61.2791703,17.1996543 L61.2407567,17.1996543 L61.2407567,16.9499664 L61.2023432,16.9499664 L61.2023432,16.7002785 L61.1639297,16.7002785 L61.1639297,16.4505906 L61.1255162,16.4505906 L61.1255162,16.2009027 L61.0871027,16.2009027 L61.0871027,15.9512148 L61.0486891,15.9512148 L61.0486891,15.7015269 L61.0102756,15.7015269 L61.0102756,15.451839 L60.9718621,15.451839 L60.9718621,15.2021512 L60.9334486,15.2021512 L60.9334486,14.9524633 L60.8950351,14.9524633 L60.8950351,14.7027754 L60.8566215,14.7027754 L60.8566215,14.4530875 L60.818208,14.4530875 L60.818208,14.2033996 L60.7797945,14.2033996 L60.7797945,13.9537117 L60.741381,13.9537117 L60.741381,13.7040238 L60.7029674,13.7040238 L60.7029674,13.4543359 L60.6645539,13.4543359 L60.6645539,13.204648 L60.6261404,13.204648 L60.6261404,12.9549601 L60.5877269,12.9549601 L60.5877269,12.7052723 L60.5493134,12.7052723 L60.5493134,12.4555844 L60.5108998,12.4555844 L60.5108998,12.2058965 L60.4724863,12.2058965 L60.4724863,11.9562086 L60.4340728,11.9562086 L60.4340728,11.7065207 L60.3956593,11.7065207 L60.3956593,11.4568328 L60.3572458,11.4568328 L60.3572458,11.2071449 L60.3188322,11.2071449 L60.3188322,10.957457 L60.2804187,10.957457 L60.2804187,10.7077691 L60.2420052,10.7077691 L60.2420052,10.4580812 L60.2035917,10.4580812 L60.2035917,10.2083934 L60.1651781,10.2083934 L60.1651781,9.95870546 L60.1267646,9.95870546 L60.1267646,9.70901757 L60.0883511,9.70901757 L60.0883511,9.45932968 L60.0499376,9.45932968 L60.0499376,9.20964179 L60.0115241,9.20964179 L60.0115241,8.9599539 L59.9731105,8.9599539 L59.9731105,8.71026601 L59.934697,8.71026601 L59.934697,8.46057812 L59.8962835,8.46057812 L59.8962835,8.21089023 L59.85787,8.21089023 L59.85787,7.96120234 L59.8194564,7.96120234 L59.8194564,7.71151445 L59.7810429,7.71151445 L59.7810429,7.46182656 L59.7426294,7.46182656 L59.7426294,7.21213867 L59.7042159,7.21213867 L59.7042159,6.96245078 L59.6658024,6.96245078 L59.6658024,6.71276289 L59.6273888,6.71276289 L59.6273888,6.463075 L59.5889753,6.463075 L59.5889753,6.21338711 L59.5505618,6.21338711 L59.5505618,5.96369922 L59.5121483,5.96369922 L59.5121483,5.71401133 L59.4737348,5.71401133 L59.4737348,5.46432344 L59.4353212,5.46432344 L59.4353212,5.21463555 L59.3969077,5.21463555 L59.3969077,4.96494766 L59.3584942,4.96494766 L59.3584942,4.71525977 L59.3200807,4.71525977 L59.3200807,4.46557188 L59.2816671,4.46557188 L59.2816671,4.21588399 L59.2432536,4.21588399 L59.2432536,3.9661961 L59.2048401,3.9661961 L59.2048401,3.71650821 L59.1664266,3.71650821 L59.1664266,3.46682032 L59.1280131,3.46682032 L59.1280131,3.21713243 L59.0895995,3.21713243 L59.0895995,2.96744454 L59.051186,2.96744454 L59.051186,2.71775665 L59.0127725,2.71775665 L59.0127725,2.46806876 L58.974359,2.46806876 L58.974359,2.21838087 L0.0768270431,2.21838087 L0.0768270431,23.0385096 L0.153654086,23.0385096 L0.153654086,23.2785941 L0.230481129,23.2785941 L0.230481129,23.5186786 L0.307308172,23.5186786 L0.307308172,23.7587631 L0.384135216,23.7587631 L0.384135216,23.9988476 L0.460962259,23.9988476 L0.460962259,24.2389321 L0.537789302,24.2389321 L0.537789302,24.4790166 L0.614616345,24.4790166 L0.614616345,24.7191011 L0.691443388,24.7191011 L0.691443388,24.9591856 L0.768270431,24.9591856 L0.768270431,25.1992701 L0.845097474,25.1992701 L0.845097474,25.4393547 L0.921924517,25.4393547 L0.921924517,25.6794392 L0.998751561,25.6794392 L0.998751561,25.9195237 L1.0755786,25.9195237 L1.0755786,26.1596082 L1.15240565,26.1596082 L1.15240565,26.3996927 L1.22923269,26.3996927 L1.22923269,26.6397772 L1.30605973,26.6397772 L1.30605973,26.8798617 L1.38288678,26.8798617 L1.38288678,27.1199462 L1.45971382,27.1199462 L1.45971382,27.3600307 L1.53654086,27.3600307 L1.53654086,27.6001152 L1.61336791,27.6001152 L1.61336791,27.8401998 L1.69019495,27.8401998 L1.69019495,28.0802843 L1.76702199,28.0802843 L1.76702199,28.3203688 L1.84384903,28.3203688 L1.84384903,28.5604533 L1.92067608,28.5604533 L1.92067608,28.8005378 L1.99750312,28.8005378 L1.99750312,29.0406223 L2.07433016,29.0406223 L2.07433016,29.2807068 L2.15115721,29.2807068 L2.15115721,29.5207913 L2.22798425,29.5207913 L2.22798425,29.7608758 L2.30481129,29.7608758 L2.30481129,30.0009603 L2.38163834,30.0009603 L2.38163834,30.2410448 L2.45846538,30.2410448 L2.45846538,30.4811294 L2.53529242,30.4811294 L2.53529242,30.7212139 L2.61211947,30.7212139 L2.61211947,30.9612984 L2.68894651,30.9612984 L2.68894651,31.2013829 L2.76577355,31.2013829 L2.76577355,31.4414674 L2.8426006,31.4414674 L2.8426006,31.6815519 L2.91942764,31.6815519 L2.91942764,31.9216364 L2.99625468,31.9216364 L2.99625468,32.1617209 L3.07308172,32.1617209 L3.07308172,32.4018054 L3.14990877,32.4018054 L3.14990877,32.6418899 L3.22673581,32.6418899 L3.22673581,32.8819745 L3.30356285,32.8819745 L3.30356285,33.122059 L3.3803899,33.122059 L3.3803899,33.3621435 L3.45721694,33.3621435 L3.45721694,33.602228 L3.53404398,33.602228 L3.53404398,33.8423125 L3.61087103,33.8423125 L3.61087103,34.082397 L3.68769807,34.082397 L3.68769807,34.3224815 L3.76452511,34.3224815 L3.76452511,34.562566 L3.84135216,34.562566 L3.84135216,34.8026505 L3.9181792,34.8026505 L3.9181792,35.042735 L3.99500624,35.042735 L3.99500624,35.2828196 L4.07183329,35.2828196 L4.07183329,35.5229041 L4.14866033,35.5229041 L4.14866033,35.7629886 L4.22548737,35.7629886 L4.22548737,36.0030731 L4.30231441,36.0030731 L4.30231441,36.2431576 L4.37914146,36.2431576 L4.37914146,36.4832421 L4.4559685,36.4832421 L4.4559685,36.7233266 L4.53279554,36.7233266 L4.53279554,36.9634111 L4.60962259,36.9634111 L4.60962259,37.2034956 L4.68644963,37.2034956 L4.68644963,37.4435801 L4.76327667,37.4435801 L4.76327667,37.6836646 L4.84010372,37.6836646 L4.84010372,37.9237492 L4.91693076,37.9237492 L4.91693076,38.1638337 L4.9937578,38.1638337 L4.9937578,38.4039182 L5.07058485,38.4039182 L5.07058485,38.6440027 L5.14741189,38.6440027 L5.14741189,38.8840872 L5.22423893,38.8840872 L5.22423893,39.1241717 L5.30106598,39.1241717 L5.30106598,39.3642562 L5.37789302,39.3642562 L5.37789302,39.6043407 L5.45472006,39.6043407 L5.45472006,39.8444252 L5.5315471,39.8444252 L5.5315471,40.0845097 L5.60837415,40.0845097 L5.60837415,40.3245943 L5.68520119,40.3245943 L5.68520119,40.5646788 L5.76202823,40.5646788 L5.76202823,40.8047633 L5.83885528,40.8047633 L5.83885528,41.0448478 L5.91568232,41.0448478 L5.91568232,41.2849323 L5.99250936,41.2849323 L5.99250936,41.5250168 L6.06933641,41.5250168 L6.06933641,41.7651013 L6.14616345,41.7651013 L6.14616345,42.0051858 L6.22299049,42.0051858 L6.22299049,42.2452703 L18.9570729,42.2452703 L18.909056,79.4679727 L18.909056,84.1352156 C18.909056,84.1352156 18.9666763,84.1352156 18.9666763,84.1352156 L18.9666763,84.3272832 C18.9666763,84.3272832 19.0338999,84.3272832 19.0338999,84.3272832 L19.0338999,84.5193508 C19.0338999,84.5193508 19.1011236,84.5193508 19.1011236,84.5193508 L19.1011236,84.7114184 L19.1683473,84.7114184 L19.1683473,84.903486 C19.1683473,84.903486 19.2355709,84.903486 19.2355709,84.903486 L19.2355709,85.0955536 C19.2355709,85.0955536 19.3027946,85.0955536 19.3027946,85.0955536 L19.3027946,85.2876212 L19.3700182,85.2876212 L19.3700182,85.4796889 C19.3700182,85.4796889 19.4372419,85.4796889 19.4372419,85.4796889 L19.4372419,85.6717565 C19.4372419,85.6717565 19.5044656,85.6717565 19.5044656,85.6717565 L19.5044656,85.8638241 L19.5716892,85.8638241 L19.5716892,86.0558917 L19.6389129,86.0558917 L19.6389129,86.2479593 C19.6389129,86.2479593 19.7061366,86.2479593 19.7061366,86.2479593 L19.7061366,86.4400269 L19.7733602,86.4400269 L19.7733602,86.6320945 L19.8405839,86.6320945 L19.8405839,86.8241621 C19.8405839,86.8241621 19.9078075,86.8241621 19.9078075,86.8241621 L19.9078075,87.0162297 C19.9078075,87.0162297 19.9750312,87.0162297 19.9750312,87.0162297 L19.9750312,87.2082973 L20.0422549,87.2082973 L20.0422549,87.4003649 L20.1094785,87.4003649 L20.1094785,87.5924325 C20.1094785,87.5924325 20.1767022,87.5924325 20.1767022,87.5924325 L20.1767022,87.7845001 L20.2439259,87.7845001 L20.2439259,87.9765678 L20.3111495,87.9765678 L20.3111495,88.1686354 C20.3111495,88.1686354 20.3783732,88.1686354 20.3783732,88.1686354 L20.3783732,88.360703 L20.4455969,88.360703 L20.4455969,88.5527706 L20.5128205,88.5527706 L20.5128205,88.7448382 C20.5128205,88.7448382 20.5800442,88.7448382 20.5800442,88.7448382 L20.5800442,88.9369058 C20.5800442,88.9369058 20.6472678,88.9369058 20.6472678,88.9369058 L20.6472678,89.1289734 L20.7144915,89.1289734 L20.7144915,89.321041 C20.7144915,89.321041 20.7817152,89.321041 20.7817152,89.321041 L20.7817152,89.5131086 C20.7817152,89.5131086 20.8489388,89.5131086 20.8489388,89.5131086 L20.8489388,89.7051762 L20.9161625,89.7051762 L20.9161625,89.8972438 C20.9161625,89.8972438 20.9833862,89.8972438 20.9833862,89.8972438 L20.9833862,90.0893114 C20.9833862,90.0893114 21.0506098,90.0893114 21.0506098,90.0893114 L21.0506098,90.281379 L21.1178335,90.281379 L21.1178335,90.4734467 C21.1178335,90.4734467 21.1850571,90.4734467 21.1850571,90.4734467 L21.1850571,90.6655143 C21.1850571,90.6655143 21.2522808,90.6655143 21.2522808,90.6655143 L21.2522808,90.8575819 L21.3195045,90.8575819 L21.3195045,91.0496495 L21.3867281,91.0496495 L21.3867281,91.2417171 C21.3867281,91.2417171 21.4539518,91.2417171 21.4539518,91.2417171 L21.4539518,91.4337847 L21.5211755,91.4337847 L21.5211755,91.6258523 L21.5883991,91.6258523 L21.5883991,91.8179199 C21.5883991,91.8179199 21.6556228,91.8179199 21.6556228,91.8179199 L21.6556228,92.0099875 C21.6556228,92.0099875 21.7228464,92.0099875 21.7228464,92.0099875 L21.7228464,92.2020551 L21.7900701,92.2020551 L21.7900701,92.3941227 L21.8572938,92.3941227 L21.8572938,92.5861903 C21.8572938,92.5861903 21.9245174,92.5861903 21.9245174,92.5861903 L21.9245174,92.7782579 L21.9917411,92.7782579 L21.9917411,92.9703256 L22.0589648,92.9703256 L22.0589648,93.1623932 C22.0589648,93.1623932 22.1261884,93.1623932 22.1261884,93.1623932 L22.1261884,93.3544608 L22.1934121,93.3544608 L22.1934121,93.5465284 L22.2606357,93.5465284 L22.2606357,93.738596 C22.2606357,93.738596 22.3278594,93.738596 22.3278594,93.738596 L22.3278594,93.9306636 C22.3278594,93.9306636 22.3950831,93.9306636 22.3950831,93.9306636 L22.3950831,94.1227312 L22.4623067,94.1227312 L22.4623067,94.3147988 C22.4623067,94.3147988 22.5295304,94.3147988 22.5295304,94.3147988 L22.5295304,94.5068664 C22.5295304,94.5068664 22.5967541,94.5068664 22.5967541,94.5068664 L22.5967541,94.698934 L22.6639777,94.698934 L22.6639777,94.8910016 C22.6639777,94.8910016 22.7312014,94.8910016 22.7312014,94.8910016 L22.7312014,95.0830692 C22.7312014,95.0830692 22.798425,95.0830692 22.798425,95.0830692 L22.798425,95.2751368 L22.8656487,95.2751368 L22.8656487,95.4672045 C22.8656487,95.4672045 22.9328724,95.4672045 22.9328724,95.4672045 L22.9328724,95.6592721 C22.9328724,95.6592721 23.000096,95.6592721 23.000096,95.6592721 L23.000096,95.8513397 L23.0673197,95.8513397 L23.0673197,96.0434073 L23.1345434,96.0434073 L23.1345434,96.2354749 C23.1345434,96.2354749 23.201767,96.2354749 23.201767,96.2354749 L23.201767,96.4275425 L23.2689907,96.4275425 L23.2689907,96.6196101 L23.3362143,96.6196101 L23.3362143,96.8116777 C23.3362143,96.8116777 23.403438,96.8116777 23.403438,96.8116777 L23.403438,97.0037453 C23.403438,97.0037453 23.4706617,97.0037453 23.4706617,97.0037453 L23.4706617,97.1958129 L23.5378853,97.1958129 L23.5378853,97.3878805 L23.605109,97.3878805 L23.605109,97.5799481 C23.605109,97.5799481 23.6723327,97.5799481 23.6723327,97.5799481 L23.6723327,97.7720157 L23.7395563,97.7720157 L23.7395563,97.9640834 L23.80678,97.9640834 L23.80678,98.156151 C23.80678,98.156151 23.8740036,98.156151 23.8740036,98.156151 L23.8740036,98.3482186 C23.8740036,98.3482186 23.9412273,98.3482186 23.9412273,98.3482186 L23.9412273,98.5402862 L24.008451,98.5402862 L24.008451,98.7323538 C24.008451,98.7323538 24.0756746,98.7323538 24.0756746,98.7323538 L24.0756746,98.9244214 C24.0756746,98.9244214 24.1428983,98.9244214 24.1428983,98.9244214 L24.1428983,99.116489 L24.210122,99.116489 L24.210122,99.3085566 C24.210122,99.3085566 24.2773456,99.3085566 24.2773456,99.3085566 L24.2773456,99.5006242 C24.2773456,99.5006242 28.704504,99.5006242 28.704504,99.5006242 L60.6837607,99.5006242 L60.6837607,69.9606261 C60.8086046,67.8670892 61.5288582,67.2620763 61.778546,67.0700086 C62.7772976,66.2537213 64.1025641,65.8503793 65.8599827,65.8503793 L66.0136368,65.8503793 C66.0136368,65.8503793 66.0232402,65.8983962 66.0232402,65.917603 C66.0328436,65.9848267 66.0520503,66.0520503 66.0616537,66.1288774 C66.0712571,66.196101 66.0904638,66.2729281 66.1000672,66.3401517 C66.1096706,66.4073754 66.1288774,66.4842024 66.1384807,66.5514261 C66.1480841,66.6186498 66.1672909,66.6954768 66.1768943,66.7627005 C66.1864976,66.8299241 66.2057044,66.8971478 66.2153078,66.9739748 C66.2249112,67.0411985 66.2441179,67.1084222 66.2537213,67.1852492 C66.2633247,67.2524729 66.2825315,67.3292999 66.2921348,67.3965236 C66.3017382,67.4637472 66.320945,67.5309709 66.3305484,67.6077979 C66.3401517,67.6750216 66.3593585,67.7518487 66.3689619,67.8190723 C66.3785653,67.886296 66.397772,67.9535196 66.4073754,68.0303467 C66.4169788,68.0975703 66.4361855,68.1743974 66.4457889,68.2416211 C66.4553923,68.3088447 66.4745991,68.3760684 66.4842024,68.4528954 C66.4938058,68.5201191 66.5130126,68.5873427 66.522616,68.6641698 C66.5322193,68.7313935 66.5514261,68.8082205 66.5610295,68.8754442 C66.5706329,68.9426678 66.5898396,69.0098915 66.599443,69.0867185 C66.6090464,69.1539422 66.6282531,69.2307692 66.6378565,69.2979929 C66.6474599,69.3652166 66.6666667,69.4324402 66.67627,69.5092673 C66.6858734,69.5764909 66.7050802,69.653318 66.7146836,69.7205416 C66.7242869,69.7877653 66.7434937,69.854989 66.7530971,69.931816 C66.7627005,69.9990397 66.7819072,70.0758667 66.7915106,70.1430904 C66.801114,70.210314 66.8203208,70.2775377 66.8299241,70.3543647 C66.8395275,70.4215884 66.8587343,70.4984154 66.8683377,70.5656391 C66.877941,70.6328628 66.8971478,70.7000864 66.9067512,70.7769135 C66.9163546,70.8441371 66.9355613,70.9209642 66.9451647,70.9881878 C66.9547681,71.0554115 66.9739748,71.1226352 66.9835782,71.1994622 C66.9931816,71.2666859 67.0123884,71.3435129 67.0219917,71.4107366 C67.0315951,71.4779602 67.0508019,71.5547873 67.0604053,71.6220109 C67.0700086,71.6892346 67.0892154,71.7564583 67.0988188,71.8332853 C67.1084222,71.900509 67.1276289,71.977336 67.1372323,72.0445597 C67.1468357,72.1117833 67.1660424,72.179007 67.1756458,72.2558341 C67.1852492,72.3230577 67.204456,72.3998848 67.2140593,72.4671084 C67.2236627,72.5343321 67.2428695,72.6111591 67.2524729,72.6783828 C67.2620763,72.7456065 67.281283,72.8128301 67.2908864,72.8896572 C67.3004898,72.9568808 67.3196965,73.0337079 67.3292999,73.1009315 C67.3389033,73.1681552 67.3581101,73.2353789 67.3677134,73.3122059 C67.3773168,73.3794296 67.3965236,73.4562566 67.406127,73.5234803 C67.4157303,73.5907039 67.4349371,73.667531 67.4445405,73.7347546 C67.4541439,73.8019783 67.4733506,73.869202 67.482954,73.946029 C67.4925574,74.0132527 67.5117641,74.0900797 67.5213675,74.1573034 C67.5309709,74.224527 67.5501777,74.2917507 67.559781,74.3685777 C67.5693844,74.4358014 67.5885912,74.5126284 67.5981946,74.5798521 C67.6077979,74.6470758 67.6270047,74.7142994 67.6366081,74.7911265 C67.6462115,74.8583501 67.6654182,74.9351772 67.6750216,75.0024008 C67.684625,75.0696245 67.7038317,75.1464516 67.7134351,75.2136752 C67.7230385,75.2808989 67.7422453,75.3481225 67.7518487,75.4249496 C67.761452,75.4921732 67.7806588,75.5690003 67.7902622,75.636224 C67.7998656,75.7034476 67.8190723,75.7706713 67.8286757,75.8474983 C67.8382791,75.914722 67.8574858,75.991549 67.8670892,76.0587727 C67.8766926,76.1259964 67.8958994,76.19322 67.9055027,76.2700471 C67.9151061,76.3372707 67.9343129,76.4140978 67.9439163,76.4813214 C67.9535196,76.5485451 67.9727264,76.6253721 67.9823298,76.6925958 C67.9919332,76.7598195 68.0111399,76.8366465 68.0207433,76.9038702 C68.0303467,76.9710938 68.0495534,77.0383175 68.0591568,77.1151445 C68.0687602,77.1823682 68.087967,77.2591952 68.0975703,77.3264189 C68.1071737,77.3936426 68.1263805,77.4704696 68.1359839,77.5376933 C68.1455872,77.6049169 68.164794,77.6721406 68.1743974,77.7489676 C68.1840008,77.8161913 68.2032075,77.8930183 68.2128109,77.960242 C68.2224143,78.0274657 68.2416211,78.0946893 68.2512244,78.1715164 C68.2608278,78.23874 68.2800346,78.3155671 68.289638,78.3827907 C68.2992413,78.4500144 68.3184481,78.5268414 68.3280515,78.5940651 C68.3376549,78.6612888 68.3568616,78.7285124 68.366465,78.8053395 C68.3760684,78.8725631 68.3952751,78.9493902 68.4048785,79.0166138 C68.4144819,79.0838375 68.4336887,79.1510612 68.443292,79.2278882 C68.4528954,79.2951119 68.4721022,79.3719389 68.4817056,79.4391626 C68.4913089,79.5063862 68.5105157,79.5832133 68.5201191,79.650437 C68.5297225,79.7176606 68.5489292,79.7848843 68.5585326,79.8617113 C68.568136,79.928935 68.5873427,80.005762 68.5969461,80.0729857 C68.6065495,80.1402094 68.6257563,80.207433 68.6353596,80.2842601 C68.644963,80.3514837 68.6641698,80.4283108 68.6737732,80.4955344 C68.6833765,80.5627581 68.7025833,80.6299818 68.7121867,80.7068088 C68.7217901,80.7740325 68.7409968,80.8412561 68.7506002,80.9180832 C68.7602036,80.9853068 68.7794104,81.0621339 68.7890137,81.1293575 C69.4804571,85.1435705 70.7577067,88.6488044 72.6207625,91.5970422 C74.9351772,95.2751368 79.6600403,99.6542783 89.0233362,99.6542783 C92.9511188,99.6542783 96.2834918,98.9436282 98.9052146,97.5319312 C99.6446749,97.1381926 100.336118,96.7252473 100.979545,96.2930952 L101.786229,99.6542783 L149.726304,99.6542783 L149.726304,99.4622107 L149.74551,99.4622107 L149.74551,99.2701431 L149.764717,99.2701431 L149.764717,99.0780755 L149.783924,99.0780755 L149.783924,98.8860079 L149.803131,98.8860079 L149.803131,98.6939403 L149.822337,98.6939403 L149.822337,98.5018727 L149.841544,98.5018727 L149.841544,98.3098051 L149.860751,98.3098051 L149.860751,98.1177374 L149.879958,98.1177374 L149.879958,97.9256698 L149.899165,97.9256698 L149.899165,97.7336022 L149.918371,97.7336022 L149.918371,97.5415346 L149.937578,97.5415346 L149.937578,97.349467 L149.956785,97.349467 L149.956785,97.1573994 L149.975992,97.1573994 L149.975992,96.9653318 L149.995198,96.9653318 L149.995198,96.7732642 L150.014405,96.7732642 L150.014405,96.5811966 L150.033612,96.5811966 L150.033612,96.389129 L150.052819,96.389129 L150.052819,96.1970614 L150.072025,96.1970614 L150.072025,96.0049938 L150.091232,96.0049938 L150.091232,95.8129262 L150.110439,95.8129262 L150.110439,95.6208585 L150.129646,95.6208585 L150.129646,95.4287909 L150.148852,95.4287909 L150.148852,95.2367233 L150.168059,95.2367233 L150.168059,95.0446557 L150.187266,95.0446557 L150.187266,94.8525881 L150.206473,94.8525881 L150.206473,94.6605205 L150.225679,94.6605205 L150.225679,94.4684529 L150.244886,94.4684529 L150.244886,94.2763853 L150.264093,94.2763853 L150.264093,94.0843177 L150.2833,94.0843177 L150.2833,93.8922501 L150.302506,93.8922501 L150.302506,93.7001825 L150.321713,93.7001825 L150.321713,93.5081149 L150.34092,93.5081149 L150.34092,93.3160472 L150.360127,93.3160472 L150.360127,93.1239796 L150.379334,93.1239796 L150.379334,92.931912 L150.39854,92.931912 L150.39854,92.7398444 L150.417747,92.7398444 L150.417747,92.5477768 L150.436954,92.5477768 L150.436954,92.3557092 L150.456161,92.3557092 L150.456161,92.1636416 L150.475367,92.1636416 L150.475367,91.971574 L150.494574,91.971574 L150.494574,91.7795064 L150.513781,91.7795064 L150.513781,91.5874388 L150.532988,91.5874388 L150.532988,91.3953712 L150.552194,91.3953712 L150.552194,91.2033036 L150.571401,91.2033036 L150.571401,91.011236 L150.590608,91.011236 L150.590608,90.8191683 L150.609815,90.8191683 L150.609815,90.6271007 L150.629021,90.6271007 L150.629021,90.4350331 L150.648228,90.4350331 L150.648228,90.2429655 L150.667435,90.2429655 L150.667435,90.0508979 L150.686642,90.0508979 L150.686642,89.8588303 L150.705848,89.8588303 L150.705848,89.6667627 L150.725055,89.6667627 L150.725055,89.4746951 L150.744262,89.4746951 L150.744262,89.2826275 L150.763469,89.2826275 L150.763469,89.0905599 L150.782676,89.0905599 L150.782676,88.8984923 L150.801882,88.8984923 L150.801882,88.7064247 L150.821089,88.7064247 L150.821089,88.5143571 L150.840296,88.5143571 L150.840296,88.3222894 L150.859503,88.3222894 L150.859503,88.1302218 L150.878709,88.1302218 L150.878709,87.9381542 L150.897916,87.9381542 L150.897916,87.7460866 L150.917123,87.7460866 L150.917123,87.554019 L150.93633,87.554019 L150.93633,87.3619514 L150.955536,87.3619514 L150.955536,87.1698838 L150.974743,87.1698838 L150.974743,86.9778162 L150.99395,86.9778162 L150.99395,86.7857486 L151.013157,86.7857486 L151.013157,86.593681 L151.032363,86.593681 L151.032363,86.4016134 L151.05157,86.4016134 L151.05157,86.2095458 L151.070777,86.2095458 L151.070777,86.0174782 L151.089984,86.0174782 L151.089984,85.8254105 L151.10919,85.8254105 L151.10919,85.6333429 L151.128397,85.6333429 L151.128397,85.4412753 L151.147604,85.4412753 L151.147604,85.2492077 L151.166811,85.2492077 L151.166811,85.0571401 L151.186017,85.0571401 L151.186017,84.8650725 L151.205224,84.8650725 L151.205224,84.6730049 L151.224431,84.6730049 L151.224431,84.4809373 L151.243638,84.4809373 L151.243638,84.2888697 L151.262845,84.2888697 L151.262845,67.5885912 C151.378085,67.4157303 151.474119,67.2236627 151.598963,67.0700086 C152.280803,66.2537213 153.404398,65.31259 156.045328,65.31259 C158.686258,65.31259 159.464131,66.1576875 159.733026,66.4265822 C160.56852,67.2716796 160.799001,68.8562374 160.847018,70.0470566 L160.847018,70.6904831 C160.847018,70.6904831 160.856622,95.5728416 160.856622,95.5728416 L160.856622,99.9903966 L199.126092,99.9903966 L199.126092,65.6198982 C199.731105,65.4278306 200.480169,65.3029867 201.4213,65.3029867 C204.014213,65.3029867 204.840104,66.1480841 205.108998,66.4169788 C205.944492,67.2620763 206.174974,68.846634 206.22299,70.0374532 L206.22299,70.6808797 C206.22299,70.6808797 206.232594,95.5632383 206.232594,95.5632383 L206.232594,99.9807932 L226.053971,99.9807932 L226.053971,99.7887256 L226.121195,99.7887256 L226.121195,99.596658 L226.188418,99.596658 L226.188418,99.4045904 L226.255642,99.4045904 L226.255642,99.2125228 L226.322866,99.2125228 L226.322866,99.0204552 L226.390089,99.0204552 L226.390089,98.9916451 C227.696149,99.6254682 229.155863,100 230.702007,100 C234.841064,100 238.384711,97.4358974 239.844425,93.8250264 C239.873235,93.7578027 239.892442,93.6905791 239.921252,93.6233554 L239.777202,93.1239796 Z" id="Path" fill="#1C174D" fill-rule="nonzero"></path>
                    <g id="Group-19">
                        <g id="Combined-Shape-Copy-3" transform="translate(0.000000, 1.978296)" fill-rule="nonzero">
                            <path d="M236.483242,79.2855085 C233.304523,79.2855085 230.557956,77.4416595 229.23269,74.7719197 L229.23269,79.2855085 L212.98377,79.2855085 L212.98377,50.6482282 L212.964564,49.9183713 C212.86853,47.5271295 212.24431,45.7120907 211.120714,44.559685 C209.881878,43.3016422 208.06684,42.6870258 205.560357,42.6870258 C202.708153,42.6870258 200.585806,43.5705368 199.078075,45.3855757 C197.599155,47.1622011 196.802074,49.7167003 196.686834,52.9722462 L196.686834,53.8269471 C196.686834,53.8269471 196.67723,79.3047153 196.67723,79.3047153 L165.082109,79.3047153 L165.082109,49.9279746 C164.976472,47.5367329 164.352252,45.721694 163.219053,44.5692884 C161.980217,43.3016422 160.165178,42.6966292 157.658696,42.6966292 C154.806492,42.6966292 152.684145,43.5801402 151.176414,45.3951791 C149.697494,47.1718045 148.900413,49.7263037 148.785172,52.9818496 L148.765966,53.8365505 L148.765966,79.3143186 C148.765966,79.3143186 132.517046,79.3143186 132.517046,79.3143186 L132.517046,28.9926054 L148.583501,28.9926054 L148.583501,32.5746663 C149.207721,31.9792567 149.908768,31.4030539 150.696245,30.8460578 C153.145107,29.0982426 156.602324,28.2531451 161.25036,28.2531451 C165.22616,28.2531451 168.769807,29.184673 171.794872,31.028522 C174.819937,32.8723711 177.201575,35.446077 178.86296,38.6632094 C179.506386,39.9116489 180.024969,41.2465188 180.418707,42.6678191 L180.418707,28.983002 L196.485163,28.983002 L196.485163,32.5650629 C197.109383,31.9696533 197.810429,31.3934505 198.597906,30.8364544 C201.046768,29.0886392 204.503985,28.2435417 209.152022,28.2435417 C213.127821,28.2435417 216.671468,29.1750696 219.696533,31.0189187 C222.721598,32.8627677 225.103236,35.4364736 226.764621,38.6536061 C228.253145,41.5442236 229.079036,44.8861999 229.213483,48.5931048 L229.23269,49.65908 L229.23269,67.6077979 C230.557956,64.9380582 233.304523,63.0942092 236.483242,63.0942092 C240.939211,63.0942092 244.559685,66.7146836 244.559685,71.1706521 C244.559685,75.6266206 240.939211,79.247095 236.483242,79.247095 L236.483242,79.2855085 Z M91.9523672,42.8694901 C89.6763661,42.8694901 87.957361,43.3208489 86.8337655,44.2139633 C85.6429463,45.1550946 84.826659,46.3747239 84.3560933,47.9304715 C83.8087007,49.6974935 83.539806,51.7238068 83.539806,53.951791 C83.539806,56.1797753 83.818304,58.2348987 84.3656967,60.0403342 C84.8458657,61.6152886 85.6429463,62.8157111 86.8145587,63.7184289 C87.9477576,64.5923365 89.6763661,65.034092 91.9619706,65.034092 C96.667627,65.034092 97.7624124,63.0365889 98.1177374,62.3739556 C99.3373668,60.1555748 99.9519831,57.3129742 99.9519831,53.951791 C99.9519831,50.3889369 99.3277634,47.5175262 98.0985307,45.4239892 C97.7239988,44.7901661 96.6004033,42.8694901 91.9619706,42.8694901 L91.9523672,42.8694901 Z M102.352828,79.2855085 L101.065975,73.9076155 C99.8655527,75.1464516 98.3002017,76.2892538 96.3795256,77.3168155 C93.9498704,78.6228753 90.809565,79.2855085 87.0450399,79.2855085 C79.9577451,79.2855085 74.8007299,76.7886296 71.7084414,71.8716988 C68.8370306,67.3004898 67.3773168,61.3079804 67.3773168,54.0670316 C67.3773168,50.3121099 67.761452,46.9029098 68.5393258,43.8394315 L62.6524537,43.7818112 C60.2708153,43.7818112 58.3789494,44.3772208 56.8904254,45.5968501 C55.6611927,46.6148084 55.0081629,48.1801594 54.9025257,50.3889369 L54.8833189,51.0707769 L54.8833189,79.2855085 C54.8833189,79.2855085 38.6343993,79.2855085 38.6343993,79.2855085 L38.6343993,28.9926054 L54.7008547,28.9926054 L54.7008547,30.7884375 C55.1714203,30.471526 55.6707961,30.1834246 56.2085854,29.9145299 C58.6382407,28.7237107 60.1651781,28.6276769 62.0666475,28.6276769 L70.1815039,28.6276769 L70.1815039,39.056948 C70.6520695,38.0101796 71.1802554,37.0210314 71.7660617,36.0895035 C74.8967637,31.1341592 80.0345722,28.6276769 87.0450399,28.6276769 C90.9824258,28.6276769 94.1995582,29.3383271 96.6100067,30.7404206 C97.8392394,31.4510708 98.914818,32.2193412 99.8463459,33.0452319 L99.8463459,28.7429175 L116.104869,28.7429175 L116.104869,29.0022088 L131.527898,29.0022088 L131.527898,79.2951119 L102.352828,79.2951119 L102.352828,79.2855085 Z M21.4251416,79.2855085 L21.5019687,18.4865073 L2.33362143,18.4865073 L2.33362143,2.33362143 L56.7751849,2.33362143 L56.7751849,18.4865073 L37.6452511,18.4865073 L37.5684241,79.2855085 L21.4251416,79.2855085 Z" id="Shape" fill="#FFFFFF"></path>
                            <path d="M236.483242,65.4566407 C239.661961,65.4566407 242.235667,68.0303467 242.235667,71.2090656 C242.235667,74.3877845 239.661961,76.9614904 236.483242,76.9614904 C233.304523,76.9614904 230.730817,74.3877845 230.730817,71.2090656 C230.730817,68.0303467 233.304523,65.4566407 236.483242,65.4566407 M209.152022,30.5963699 C212.705272,30.5963699 215.816768,31.4126573 218.486507,33.0356285 C221.156247,34.6585998 223.220974,36.8961875 224.690291,39.7483914 C226.025161,42.3413041 226.755018,45.3279554 226.879862,48.7083453 L226.899068,49.735907 L226.899068,76.9614904 L215.307788,76.9614904 L215.307788,50.6482282 L215.288582,49.8703544 C215.173341,46.8260828 214.328244,44.5020647 212.772496,42.917507 C211.082301,41.1985019 208.681456,40.343801 205.550754,40.343801 C201.997503,40.343801 199.23173,41.5250168 197.27264,43.8874484 C195.447998,46.0770191 194.478056,49.0828772 194.343609,52.8858158 L194.324402,53.7789302 L194.324402,76.9614904 L182.733122,76.9614904 L182.733122,31.3262268 L194.141938,31.3262268 L194.141938,37.3091328 L195.793719,37.3091328 L196.062614,36.7809469 C196.840488,35.3788534 198.136944,34.0343801 199.932776,32.7571305 C201.95909,31.3166235 205.022568,30.5963699 209.132815,30.5963699 M161.231153,30.5963699 C164.784404,30.5963699 167.895899,31.4126573 170.565639,33.0356285 C173.235379,34.6585998 175.300106,36.8961875 176.769423,39.7483914 C178.104293,42.3413041 178.83415,45.3279554 178.958994,48.7083453 L178.9782,49.735907 L178.9782,76.9614904 L167.38692,76.9614904 L167.38692,50.6482282 L167.367713,49.8703544 C167.252473,46.8260828 166.407375,44.5020647 164.851628,42.917507 C163.161433,41.1985019 160.760588,40.343801 157.629886,40.343801 C154.076635,40.343801 151.310861,41.5250168 149.351772,43.8874484 C147.52713,46.0770191 146.557188,49.0828772 146.422741,52.8858158 L146.403534,53.7789302 L146.403534,76.9614904 L134.812254,76.9614904 L134.812254,31.3262268 L146.22107,31.3262268 L146.22107,37.3091328 L147.872851,37.3091328 L148.141746,36.7809469 C148.91962,35.3788534 150.216076,34.0343801 152.011908,32.7571305 C154.038221,31.3166235 157.1017,30.5963699 161.211947,30.5963699 M129.155863,31.3358302 L129.155863,76.9614904 L117.564583,76.9614904 L117.564583,31.3262268 L129.155863,31.3262268 M91.9139537,62.7100739 C90.204552,62.7100739 88.8792855,62.4123692 88.1878421,61.8841832 C87.4003649,61.2791703 86.8817824,60.4820897 86.5456641,59.377701 C86.0654951,57.7931432 85.8254105,55.9685009 85.8254105,53.9613944 C85.8254105,51.9542879 86.0654951,50.1680592 86.5456641,48.6219149 C86.8817824,47.5175262 87.4291751,46.7012388 88.2454624,46.048209 C88.9273024,45.5008163 90.2333621,45.2031115 91.9235571,45.2031115 C95.2271199,45.2031115 95.8417363,46.2594833 96.0434073,46.605205 C97.0613656,48.3434169 97.5799481,50.8114856 97.5799481,53.951791 C97.5799481,56.9192356 97.0613656,59.377701 96.0338039,61.2599635 C95.8417363,61.6152886 95.2463267,62.7100739 91.9235571,62.7100739 L91.9235571,62.7100739 L91.9139537,62.7100739 Z M54.4511668,4.66724287 L54.4511668,16.1624892 L35.3212331,16.1624892 L35.244406,76.9614904 L23.7587631,76.9614904 L23.8355901,16.1624892 L4.66724287,16.1624892 L4.66724287,4.66724287 L54.4511668,4.66724287 M87.0450399,30.9612984 C90.5790838,30.9612984 93.3736675,31.556708 95.4383943,32.7571305 C97.5031211,33.9575531 99.0492653,35.2828196 100.076827,36.73293 C100.979545,38.0005762 101.574954,38.9993278 101.853452,39.7099779 L101.95909,39.9980793 L102.179967,39.9980793 L102.179967,31.0573322 L113.780851,31.0573322 L113.780851,76.9422837 L104.196677,76.9422837 L102.179967,68.5489292 L101.95909,68.5489292 C101.738212,69.2019591 101.094785,70.2007107 100.02881,71.5451839 C98.9628349,72.8896572 97.3782772,74.1284932 95.2751368,75.2520887 C93.1815999,76.3756842 90.4350331,76.9422837 87.0450399,76.9422837 C80.7836358,76.9422837 76.3276673,74.8391434 73.6771344,70.6232594 C71.0266014,66.4073754 69.7013349,60.8854317 69.7013349,54.0574282 C69.7013349,47.2294248 71.0458081,41.5730337 73.7347546,37.3283396 C76.4237011,33.0740421 80.8604629,30.951695 87.0450399,30.951695 M91.9523672,67.3677134 C96.0049938,67.3677134 98.7419572,66.0808605 100.153654,63.4975511 C101.565351,60.9142418 102.276001,57.7355229 102.276001,53.951791 C102.276001,49.9567848 101.555748,46.7204456 100.105637,44.2427735 C98.6555267,41.7747047 95.9377701,40.5358686 91.9619706,40.5358686 C89.1385768,40.5358686 86.9490061,41.150485 85.3932584,42.389321 C83.8375108,43.6281571 82.7523288,45.241525 82.1377125,47.2390281 C81.5230961,49.2365313 81.215788,51.4741189 81.215788,53.9421877 C81.215788,56.4102564 81.5230961,58.6670508 82.1377125,60.7029674 C82.7523288,62.7388841 83.8375108,64.352252 85.3932584,65.5526745 C86.9490061,66.7530971 89.1385768,67.3485067 91.9619706,67.3485067 M67.8478825,30.9324882 L67.8478825,41.4769999 L62.6716604,41.4193796 C59.7234226,41.4193796 57.3033708,42.1972534 55.4019015,43.7626044 C53.6444829,45.2031115 52.7033516,47.3638721 52.5689043,50.2448862 L52.5496975,50.9843465 L52.5496975,76.9230769 L40.9584174,76.9230769 L40.9584174,31.3262268 L52.3672333,31.3262268 L52.3672333,36.4736387 L53.0490733,36.4736387 C53.7213099,34.6297897 55.0081629,33.0932488 57.2361471,32.0080668 C59.2336502,31.028522 60.3476424,30.9612984 62.0762508,30.9612984 L67.8478825,30.9612984 M59.1088063,-1.27942728e-15 L0,-1.27942728e-15 L0,20.8201287 L19.1683473,20.8201287 L19.0915202,76.9422837 L19.0915202,81.6095266 C19.0915202,81.6095266 23.7587631,81.6095266 23.7587631,81.6095266 L57.2169404,81.6095266 L57.2169404,50.4465572 C57.3417843,48.2377797 58.1100547,47.6039566 58.369346,47.3926822 C59.4161145,46.528378 60.8278114,46.1058293 62.6716604,46.1058293 L65.6775185,46.1346394 C65.2549697,48.6027082 65.0532988,51.2436378 65.0532988,54.0574282 C65.0532988,61.7497359 66.6282531,68.1551906 69.7493518,73.1105349 C72.1886104,76.9903006 77.1727648,81.6095266 87.0642466,81.6095266 C91.2129069,81.6095266 94.7277442,80.8508595 97.4935177,79.3623355 C98.2809949,78.9397868 99.0012484,78.5076347 99.6734851,78.0562758 L100.528186,81.6095266 L151.118794,81.6095266 L151.118794,52.991453 C151.234034,50.2832997 151.848651,48.2185729 152.98185,46.8548929 C153.702103,45.9905887 154.883319,44.9918371 157.668299,44.9918371 C160.45328,44.9918371 161.269567,45.8753481 161.557668,46.1730529 C162.431576,47.0661673 162.681264,48.7371555 162.738884,49.9951983 L162.738884,50.6770383 C162.738884,50.6770383 162.748487,76.9422837 162.748487,76.9422837 L162.748487,81.6095266 L199.010852,81.6095266 L199.010852,52.991453 C199.126092,50.2832997 199.750312,48.2185729 200.873908,46.8548929 C201.594161,45.9905887 202.775377,44.9918371 205.560357,44.9918371 C208.345338,44.9918371 209.171228,45.8753481 209.449726,46.1730529 C210.323634,47.0661673 210.573322,48.7371555 210.630942,49.9951983 L210.630942,50.6770383 C210.630942,50.6770383 210.640545,76.9422837 210.640545,76.9422837 L210.640545,81.6095266 L231.556708,81.6095266 L231.556708,80.3706905 C233.026025,81.1581677 234.697013,81.6095266 236.473639,81.6095266 C242.21646,81.6095266 246.883703,76.9422837 246.883703,71.1994622 C246.883703,65.4566407 242.21646,60.7893979 236.473639,60.7893979 C234.697013,60.7893979 233.026025,61.2407567 231.556708,62.0282339 L231.556708,49.6398732 C231.556708,49.6398732 231.537501,48.6123115 231.537501,48.6123115 L231.537501,48.573898 C231.537501,48.573898 231.537501,48.5354845 231.537501,48.5354845 C231.39345,44.482858 230.481129,40.8047633 228.829348,37.6068376 C226.966292,33.9959666 224.296552,31.1149525 220.906559,29.0502257 C217.516566,26.9854989 213.55037,25.9291271 209.142418,25.9291271 C204.734467,25.9291271 201.478921,26.6109671 198.818784,27.9938538 L198.818784,26.6685873 L178.085086,26.6685873 L178.085086,33.3621435 C176.634976,31.6719485 174.935177,30.2314415 173.004898,29.0502257 C169.605301,26.9758955 165.648708,25.9291271 161.240757,25.9291271 C156.832805,25.9291271 153.577259,26.6109671 150.917123,27.9938538 L150.917123,26.6685873 L118.43849,26.6685873 L118.43849,26.4092961 L97.5127245,26.4092961 L97.5127245,28.57966 C94.7469509,27.0431192 91.3185441,26.3036589 87.0450399,26.3036589 C79.9961586,26.3036589 75.434553,28.7141074 72.5055219,31.5182944 L72.5055219,26.3036589 L62.0666475,26.3036589 C60.414866,26.3036589 58.9263421,26.3804859 57.0248728,27.0431192 L57.0248728,26.6685873 L39.9692692,26.6685873 L39.9692692,20.8297321 L59.1088063,20.8297321 L59.1088063,-1.27942728e-15 L59.1088063,-1.27942728e-15 L59.1088063,-1.27942728e-15 Z" id="Shape" fill="#1C174D"></path>
                        </g>
                        <g id="Combined-Shape-Copy" transform="translate(113.263734, 0.000000)">
                            <g id="Group">
                                <path d="M10.5526498,30.6539902 L10.456616,25.9963507 C10.9751985,25.9675406 11.6474351,25.6410256 12.3964988,25.0360127 C13.5296977,24.1332949 14.1635208,23.1729569 14.3363816,22.116585 C14.3940019,21.7708633 14.4132087,21.3675214 14.269158,20.8873523 L10.5142362,23.883607 C9.89961989,24.3733794 9.50588129,24.8535484 9.40984749,25.2376837 C9.38103735,25.3433208 9.36183059,25.4105445 9.58270833,25.6602324 C9.6979489,25.7850763 9.81318946,25.8811102 9.92843003,25.9291271 L8.34387226,30.3082685 C6.78812464,29.8377029 5.42444463,28.9157784 4.3104525,27.5617017 C2.57224065,25.4681648 1.96722769,23.0289062 2.54343051,20.5128205 C3.07161643,18.2080092 4.54093363,16.0184385 6.89376183,14.011332 L19.44538,3.34197638 L21.6637609,6.0213195 C24.4103277,9.34408912 25.505113,13.0317872 24.9097034,16.9979833 C24.3335006,20.8489388 22.3071874,24.2773456 18.8883839,27.1871699 C16.2186442,29.4535677 13.587318,30.6251801 11.0520255,30.673197 L11.0232154,30.673197 C11.0232154,30.673197 10.5622531,30.673197 10.5622531,30.673197 L10.5526498,30.6539902 Z" id="Path" fill="#FFFFFF"></path>
                                <path d="M19.1476752,6.64553923 L19.8583254,7.50024008 C22.1823434,10.3044272 23.0946645,13.3486987 22.5952888,16.6426582 C22.1055164,19.9366177 20.3577011,22.8560453 17.3710498,25.4009411 C15.1142554,27.3216172 12.9919084,28.301162 11.0040086,28.3299722 L10.5814599,28.3299722 C11.6090216,28.2723519 12.6942036,27.7825795 13.8466092,26.860655 C15.4407704,25.5930087 16.3722983,24.1332949 16.6315895,22.4815135 C16.8908808,20.8393354 16.4107118,19.312398 15.1718757,17.9103044 L14.7973439,17.4781523 L9.06412579,22.0493614 C8.00775395,22.8848555 7.37393085,23.7587631 7.1530531,24.6710842 C6.93217535,25.5834054 7.1530531,26.4188995 7.84449648,27.1871699 C8.19021818,27.5809085 8.58395677,27.8690099 9.02571227,28.0514741 C7.90211677,27.7153558 6.93217535,27.0431192 6.10628463,26.053971 C4.82903504,24.5078268 4.39688292,22.8272352 4.81943166,21.0121963 C5.2419804,19.1971574 6.43279957,17.4493422 8.41109593,15.7687506 L19.1572786,6.62633247 M19.7334814,0.00960338039 L16.1322138,3.07308172 L5.3860311,12.2154999 C2.63946431,14.5491213 0.920459223,17.1612408 0.277032737,19.9654278 C-0.472030933,23.2113704 0.305842878,26.3516758 2.51462037,29.0214155 C3.93592067,30.7308172 5.66452914,31.9024297 7.67163564,32.5074426 L10.3701855,25.0744262 L10.5430464,32.9684049 L10.9655951,32.9684049 C10.9655951,32.9684049 11.0328188,32.9684049 11.0328188,32.9684049 L11.1000424,32.9684049 C14.1827275,32.9107846 17.3230329,31.556708 20.405718,28.9253817 C24.266277,25.6410256 26.5614849,21.7324498 27.2241181,17.3052915 C27.9059581,12.724479 26.6095018,8.29732066 23.459593,4.49438202 L22.7489428,3.63968117 L19.7334814,0 L19.7334814,0 L19.7334814,0.00960338039 Z" id="Shape" fill="#010202" fill-rule="nonzero"></path>
                            </g>
                            <g id="Group">
                                <path d="M10.5526498,30.6539902 L10.456616,25.9963507 C10.9751985,25.9675406 11.6474351,25.6410256 12.3964988,25.0360127 C13.5296977,24.1332949 14.1635208,23.1729569 14.3363816,22.116585 C14.3940019,21.7708633 14.4132087,21.3675214 14.269158,20.8873523 L10.5142362,23.883607 C9.89961989,24.3733794 9.50588129,24.8535484 9.40984749,25.2376837 C9.38103735,25.3433208 9.36183059,25.4105445 9.58270833,25.6602324 C9.6979489,25.7850763 9.81318946,25.8811102 9.92843003,25.9291271 L8.34387226,30.3082685 C6.78812464,29.8377029 5.42444463,28.9157784 4.3104525,27.5617017 C2.57224065,25.4681648 1.96722769,23.0289062 2.54343051,20.5128205 C3.07161643,18.2080092 4.54093363,16.0184385 6.89376183,14.011332 L19.44538,3.34197638 L21.6637609,6.0213195 C24.4103277,9.34408912 25.505113,13.0317872 24.9097034,16.9979833 C24.3335006,20.8489388 22.3071874,24.2773456 18.8883839,27.1871699 C16.2186442,29.4535677 13.587318,30.6251801 11.0520255,30.673197 L11.0232154,30.673197 C11.0232154,30.673197 10.5622531,30.673197 10.5622531,30.673197 L10.5526498,30.6539902 Z" id="Path" fill="#8DD2F4"></path>
                                <path d="M19.1476752,6.64553923 L19.8583254,7.50024008 C22.1823434,10.3044272 23.0946645,13.3486987 22.5952888,16.6426582 C22.1055164,19.9366177 20.3577011,22.8560453 17.3710498,25.4009411 C15.1142554,27.3216172 12.9919084,28.301162 11.0040086,28.3299722 L10.5814599,28.3299722 C11.6090216,28.2723519 12.6942036,27.7825795 13.8466092,26.860655 C15.4407704,25.5930087 16.3722983,24.1332949 16.6315895,22.4815135 C16.8908808,20.8393354 16.4107118,19.312398 15.1718757,17.9103044 L14.7973439,17.4781523 L9.06412579,22.0493614 C8.00775395,22.8848555 7.37393085,23.7587631 7.1530531,24.6710842 C6.93217535,25.5834054 7.1530531,26.4188995 7.84449648,27.1871699 C8.19021818,27.5809085 8.58395677,27.8690099 9.02571227,28.0514741 C7.90211677,27.7153558 6.93217535,27.0431192 6.10628463,26.053971 C4.82903504,24.5078268 4.39688292,22.8272352 4.81943166,21.0121963 C5.2419804,19.1971574 6.43279957,17.4493422 8.41109593,15.7687506 L19.1572786,6.62633247 M19.7334814,0.00960338039 L16.1322138,3.07308172 L5.3860311,12.2154999 C2.63946431,14.5491213 0.920459223,17.1612408 0.277032737,19.9654278 C-0.472030933,23.2113704 0.305842878,26.3516758 2.51462037,29.0214155 C3.93592067,30.7308172 5.66452914,31.9024297 7.67163564,32.5074426 L10.3701855,25.0744262 L10.5430464,32.9684049 L10.9655951,32.9684049 C10.9655951,32.9684049 11.0328188,32.9684049 11.0328188,32.9684049 L11.1000424,32.9684049 C14.1827275,32.9107846 17.3230329,31.556708 20.405718,28.9253817 C24.266277,25.6410256 26.5614849,21.7324498 27.2241181,17.3052915 C27.9059581,12.724479 26.6095018,8.29732066 23.459593,4.49438202 L22.7489428,3.63968117 L19.7334814,0 L19.7334814,0 L19.7334814,0.00960338039 Z" id="Shape" fill="#1C174D" fill-rule="nonzero"></path>
                            </g>
                        </g>
                    </g>
                </g>
            </g>
        </g>
    </g>
</svg>