<?xml version="1.0" encoding="UTF-8"?>
<svg width="120px" height="36px" viewBox="0 0 120 36" version="1.1" xmlns="http://www.w3.org/2000/svg" xmlns:xlink="http://www.w3.org/1999/xlink">
    <title>Trainn-logo-blue Copy 3</title>
    <g id="Page-1" stroke="none" stroke-width="1" fill="none" fill-rule="evenodd">
        <g id="Work-In-Progress-Copy-4" transform="translate(-660.000000, -48.000000)">
            <g id="Trainn-logo-blue-Copy-3" transform="translate(660.000000, 48.000000)">
                <g id="Group-19" fill="#FFFFFF">
                    <path d="M24.7577143,0 L24.7577143,6.312 L15.2091429,6.312 L15.2091429,36 L9.49714286,36 L9.49714286,6.312 L0,6.312 L0,0 L24.7577143,0 Z M31.5428571,13.0765714 L31.5428571,18.3188571 L28.968,18.2914286 C27.6688857,18.2415441 26.3942776,18.6546678 25.3714286,19.4571429 C24.5005714,20.1771429 24.0308571,21.2525714 23.9622857,22.6834286 L23.9622857,36 L18.1714286,36 L18.1714286,13.1211429 L23.952,13.1211429 L23.952,15.8194286 L24.1885714,15.8194286 C24.5548846,14.8288742 25.305181,14.0278988 26.2697143,13.5977143 C27.0072419,13.2084455 27.8371636,13.0282339 28.6697143,13.0765714 L31.5428571,13.0765714 Z M62.6468571,13.1245714 L62.6468571,36 L56.8902857,36 L56.8902857,13.1245714 L62.6468571,13.1245714 Z M78.744,12.8914286 C80.3743813,12.8547702 81.9824746,13.2752022 83.3862857,14.1051429 C84.7064405,14.9083907 85.7753507,16.0651891 86.472,17.4445714 C87.1604993,18.8312431 87.5317597,20.3537623 87.5588571,21.9017143 L87.5588571,22.4125714 L87.5588571,36 L81.816,36 L81.816,22.8651429 L81.816,22.4777143 C81.7542857,20.9622857 81.3371429,19.8102857 80.5645714,19.0217143 C79.7234286,18.1691429 78.5268571,17.7428571 76.9748571,17.7428571 C75.2057143,17.7428571 73.8342857,18.3291429 72.8605714,19.5017143 C71.9462857,20.592 71.4605714,22.0834286 71.4034286,23.976 L71.4034286,24.4217143 L71.4034286,36 L65.6228571,36 L65.6228571,13.1211429 L71.3142857,13.1211429 L71.3142857,15.408 C71.3133695,15.6265149 71.3997689,15.8363446 71.5542836,15.9908593 C71.7087983,16.145374 71.918628,16.2317734 72.1371429,16.2308571 L72.1371429,16.2308571 L72.2708571,15.9702857 C72.7557174,15.1685826 73.4127005,14.4846643 74.1942857,13.968 C75.1908571,13.2502857 76.7097143,12.8914286 78.7508571,12.8914286 L78.744,12.8914286 Z M103.673143,12.9291429 C105.303524,12.8924845 106.911617,13.3129165 108.315429,14.1428571 C109.63723,14.944091 110.706631,16.1014209 111.401143,17.4822857 C112.090829,18.8686816 112.463264,20.3912142 112.491429,21.9394286 L112.491429,22.4502857 L112.491429,36 L106.731429,36 L106.731429,22.9028571 L106.731429,22.5154286 C106.672,21 106.256,19.848 105.483429,19.0594286 C104.646857,18.2068571 103.451429,17.7805714 101.897143,17.7805714 C100.128,17.7805714 98.7565714,18.368 97.7828571,19.5428571 C96.8685714,20.6331429 96.3828571,22.1188571 96.3257143,24 L96.3257143,24.4457143 L96.3257143,36 L90.552,36 L90.552,13.1211429 L96.2228571,13.1211429 L96.2228571,15.4457143 C96.2228571,15.9001657 96.5912628,16.2685714 97.0457143,16.2685714 L97.0457143,16.2685714 L97.1828571,16.008 C97.6677174,15.2062969 98.3247005,14.5223786 99.1062857,14.0057143 C100.112,13.288 101.636571,12.9291429 103.68,12.9291429 L103.673143,12.9291429 Z M40.6045714,13.0765677 C42.3622857,13.0765677 43.7542857,13.3748571 44.7805714,13.9714286 C45.6810262,14.4587666 46.4666489,15.1333265 47.0845714,15.9497143 C47.4334766,16.4090747 47.7301608,16.9058482 47.9691429,17.4308571 L48.0205714,17.5748571 L48.1302857,17.5748571 L48.1302857,13.1177143 L53.8971429,13.1177143 L53.8971429,36 L48.1371429,36 L48.1371429,31.7794286 L48.0274286,31.7794286 C47.7810215,32.3168741 47.4563545,32.814851 47.064,33.2571429 C46.4107176,34.0244832 45.6081574,34.6509001 44.7051429,35.0982857 C43.6605714,35.6605714 42.296,35.9405714 40.6114286,35.9382857 C37.4982857,35.9382857 35.2834286,34.8902857 33.9668571,32.7942857 C32.6502857,30.6982857 31.9908571,27.9554286 31.9885714,24.5657143 C31.9885714,21.1371429 32.6571429,18.3645714 33.9942857,16.248 C35.3314286,14.1314286 37.5371429,13.0742857 40.6114286,13.0765677 L40.6045714,13.0765677 Z M117.140571,30.2674286 C118.71979,30.2674286 120,31.5476383 120,33.1268571 C120,34.7060759 118.71979,35.9862857 117.140571,35.9862857 C115.561353,35.9862857 114.281143,34.7060759 114.281143,33.1268571 C114.281143,32.3684895 114.582403,31.6411827 115.11865,31.1049358 C115.654897,30.5686889 116.382204,30.2674286 117.140571,30.2674286 Z M43.0525714,17.8285714 C41.6514286,17.8285714 40.5622857,18.136 39.7851429,18.7508571 C39.0103311,19.3647764 38.4439656,20.2029494 38.1634286,21.1508571 C37.8458972,22.2431336 37.6944887,23.3769634 37.7142857,24.5142857 C37.7020842,25.6507395 37.8568792,26.7828227 38.1737143,27.8742857 C38.445582,28.8262599 39.0136096,29.6668928 39.7954286,30.2742857 C40.5702857,30.8708571 41.6594286,31.1691429 43.0628571,31.1691429 C45.0834286,31.1691429 46.4434286,30.528 47.1428571,29.2457143 C47.8874983,27.7778001 48.2495397,26.1456655 48.1954286,24.5005714 C48.1954286,22.5074286 47.8354286,20.8982857 47.1154286,19.6731429 C46.3954286,18.448 45.0411429,17.8331429 43.0525714,17.8285714 Z" id="Combined-Shape-Copy-3"></path>
                </g>
                <path d="M63.312,0.342857143 L63.0068571,0 L57.6,4.38171429 C56.5371429,5.23885714 55.8034286,6.15771429 55.4811429,7.16914286 C55.1439515,8.21737653 55.3908953,9.36586121 56.1291429,10.1828571 C56.9063953,11.0503934 58.0586829,11.4831413 59.2148571,11.3417143 C60.4844042,11.215884 61.6830071,10.6968889 62.6434286,9.85714286 C64.2137143,8.584 65.0857143,7.09828571 65.2594286,5.4 C65.4331429,3.70171429 64.784,2.016 63.312,0.342857143 Z M60.7954286,10.5154286 C60.3018926,10.9593682 59.6823487,11.2385823 59.0228571,11.3142857 C58.4247098,11.3860905 57.8292705,11.1607199 57.4285714,10.7108571 C57.0426666,10.2886584 56.9119021,9.69237226 57.0857143,9.14742857 C57.3029983,8.56967526 57.6843319,8.06798324 58.1828571,7.704 L60.9874286,5.43428571 L61.1485714,5.616 C61.9028571,6.48342857 62.232,7.35771429 62.1428571,8.23542857 C62.0287897,9.15294558 61.5413084,9.98278017 60.7954286,10.5291429 L60.7954286,10.5154286 Z" id="Shape" fill="#FF193B"></path>
            </g>
        </g>
    </g>
</svg>