<?xml version="1.0" encoding="UTF-8"?>
<svg width="420px" height="488px" viewBox="0 0 420 488" version="1.1" xmlns="http://www.w3.org/2000/svg" xmlns:xlink="http://www.w3.org/1999/xlink">
    <title>we-dont-education</title>
    <g id="Website-Deployments" stroke="none" stroke-width="1" fill="none" fill-rule="evenodd">
        <g id="Work-In-Progress-Copy-4" transform="translate(-206.000000, -1875.000000)" fill-rule="nonzero">
            <g id="we-dont-education" transform="translate(206.000000, 1875.000000)">
                <path d="M64.8982323,487.296289 L53.4690236,487.296289 C53.4690236,487.296289 53.3753415,487.296289 53.3285005,487.296289 L53.3285005,487.296289 C50.9864496,487.296289 48.8083422,486.545664 47.1220655,485.1617 C44.1008197,487.36666 39.3464563,487.36666 34.6857748,487.36666 C32.3905649,487.36666 30.0485139,487.319746 27.9640886,487.249375 L22.5305303,487.249375 C22.5305303,487.249375 10.3752858,487.249375 10.3752858,487.249375 C4.87146601,487.249375 0.374728155,482.769083 0.374728155,477.233224 C0.374728155,476.412228 0.374728155,405.947318 0.374728155,386.970583 L0,386.82984 L0.374728155,381.78658 C0.70261529,377.5174 3.34913288,374.937127 5.29303519,373.388964 C2.69335861,371.582773 1.00708192,368.580273 1.00708192,365.179004 C1.00708192,364.358008 1.00708192,291.875793 1.00708192,274.118823 L0.796297329,274.001538 L1.00708192,269.873101 C1.2178665,265.908864 3.44281492,263.422419 5.29303519,261.874255 C2.34205097,260.138435 0.374728155,256.948279 0.374728155,253.288983 C0.374728155,252.467987 0.374728155,179.938858 0.374728155,162.181888 L0.163943568,162.041146 L0.398148664,157.889252 C0.632353761,153.737358 3.06808677,151.227456 4.94172754,149.679292 C2.20152791,147.896558 0.398148664,144.823688 0.398148664,141.305134 L0.398148664,46.4214574 C0.327887135,41.6127668 3.60675849,38.9621227 5.01198907,37.8127283 L5.0822506,37.7658143 C14.0757263,29.9311671 23.1863046,22.0026918 32.1329393,14.2618727 C35.3181286,11.4704864 38.5735794,8.63218612 41.8290303,5.84079985 L42.0866559,5.60622957 L42.367702,5.41857335 C42.5550661,5.30128821 43.0000558,4.85560469 43.3279429,4.52720631 C44.8736965,3.00249952 47.4499526,0.46914055 51.5251213,0.046914055 L51.8764289,0 L60.9401662,0 C61.0572687,0 61.1977918,0 61.3148943,0 L61.3148943,0 C63.7037863,0 65.9053142,0.75062488 67.6150114,2.15804653 C69.3247086,1.00865218 71.1983494,0.164199192 73.3061953,0.0234570275 L73.4935594,0.0234570275 C73.4935594,0.0234570275 82.4167735,0.0234570275 82.4167735,0.0234570275 C82.5572966,0.0234570275 82.6743992,0.0234570275 82.8149222,0.0234570275 L82.8149222,0.0234570275 C85.1803937,0.0234570275 87.3350806,0.774081907 89.0447778,2.15804653 C90.7778955,0.961738127 92.6515363,0.140742165 94.7593821,0.0234570275 L94.9467462,0.0234570275 C94.9467462,0.0234570275 103.84654,0.0234570275 103.84654,0.0234570275 C103.987063,0.0234570275 104.104166,0.0234570275 104.244689,0.0234570275 L104.244689,0.0234570275 C106.633581,0.0234570275 108.835108,0.797538935 110.544806,2.22841761 C112.324764,1.00865218 114.245246,0.117285137 116.399933,0.0234570275 L116.563877,0.0234570275 C116.563877,0.0234570275 147.361847,0.0234570275 147.361847,0.0234570275 C152.842246,0.0234570275 157.315563,4.50374928 157.315563,9.99269371 L157.315563,11.3062873 C157.315563,11.3062873 157.198461,11.5877716 157.198461,11.5877716 C157.198461,13.0421073 157.245302,16.208806 157.315563,18.8359931 C157.737133,38.1645837 157.479507,44.1695828 155.441923,47.4301096 C156.612948,49.0721015 157.315563,51.0659489 157.315563,53.2239954 C157.315563,53.2239954 157.315563,60.2845607 157.315563,61.457412 C157.385825,63.7092867 156.612948,65.6327629 155.371661,67.3451259 C156.378743,68.6821765 157.315563,70.6291098 157.315563,73.350125 C157.315563,74.1476639 157.315563,104.196116 157.315563,104.946741 C157.315563,107.785041 156.050856,110.08383 154.364579,111.983849 L164.97407,111.983849 C164.97407,111.983849 165.138014,111.983849 165.208275,111.983849 L165.208275,111.983849 C165.208275,111.983849 165.301957,111.983849 165.301957,111.983849 C167.386383,111.983849 169.283444,112.570275 170.852618,113.649298 C172.234428,112.851759 173.850443,112.21842 175.747505,112.030763 L176.098812,111.983849 C176.098812,111.983849 218.72414,111.983849 218.74756,111.983849 L218.817822,111.983849 C222.588524,111.983849 224.977416,113.649298 226.335805,115.05672 C229.825461,118.692559 229.638097,123.853105 229.497574,127.254374 C229.474154,127.864257 229.450733,128.70871 229.474154,128.990194 L229.474154,129.295136 C229.474154,129.295136 229.497574,129.600077 229.497574,129.600077 C229.497574,135.135935 224.977416,138.65449 222.003011,141.000192 C221.885909,141.09402 221.768806,141.164391 221.651704,141.281677 C221.628283,144.823688 221.745386,151.860796 221.862488,158.733705 C222.775888,210.737935 221.815647,219.886176 218.74756,223.897327 C219.918586,223.897327 221.01935,223.920784 222.049852,223.944241 C223.993755,223.967699 225.680031,224.014613 226.780795,224.014613 C227.155523,224.014613 227.389728,224.014613 227.530251,224.014613 C227.858139,223.967699 228.209446,223.944241 228.560754,223.944241 C233.010651,223.944241 236.242681,227.462796 239.076563,230.559123 C239.498132,231.028264 240.083645,231.638147 240.34127,231.919631 C241.418614,232.693713 242.191491,233.631994 242.730162,234.711017 C243.854347,233.725822 245.001952,232.740627 246.126136,231.778889 L246.383762,231.567775 L246.664808,231.380119 C247.016116,231.145549 247.859254,230.324553 248.468187,229.738127 C250.974182,227.322053 254.11253,224.343011 258.25796,223.991156 L258.539006,223.991156 C258.539006,223.991156 285.519433,223.967699 285.519433,223.967699 C285.566274,223.967699 285.613115,223.967699 285.683377,223.967699 C285.777059,223.967699 285.870741,223.967699 285.964423,223.967699 C288.353315,223.967699 290.484581,224.74178 292.147438,226.172659 C293.880555,224.999808 295.754196,224.131898 297.862042,223.991156 L298.072827,223.991156 C298.072827,223.991156 310.766743,223.991156 310.766743,223.991156 C310.813584,223.991156 310.860425,223.991156 310.930686,223.991156 L310.930686,223.991156 C313.132214,223.991156 315.193219,224.671409 316.832655,225.891175 C318.191044,224.929437 320.088106,223.991156 322.617521,223.991156 L353.274968,223.991156 C358.755367,223.991156 363.228685,228.471448 363.228685,233.960392 L363.228685,328.961354 C363.228685,331.635455 362.151341,334.192271 360.25428,336.045376 L384.61161,336.045376 C384.61161,336.045376 384.728712,336.045376 384.775553,336.045376 C384.869235,336.045376 384.962918,336.045376 385.0566,336.045376 C387.422071,336.045376 389.529917,336.819458 391.192773,338.203422 C394.143757,335.951548 398.429711,335.951548 401.474377,335.951548 C403.090392,335.951548 404.729828,335.998462 406.181899,336.045376 C407.188981,336.068833 408.149222,336.115747 408.804996,336.115747 C408.922099,336.115747 408.99236,336.115747 409.062622,336.115747 L409.390509,336.045376 L410.022863,336.045376 C415.526683,336.045376 420,340.525668 420,346.03807 L420,440.992117 C420,444.088445 418.571349,446.997116 416.135616,448.873678 C410.210227,454.034224 404.237997,459.218227 398.359449,464.308402 C392.996152,468.976351 387.586015,473.691213 382.246138,478.312248 L381.988513,478.523361 L381.707467,478.711017 C381.309318,478.992501 380.185134,480.048068 379.459098,480.728321 C375.89918,484.059219 372.550047,487.225918 368.310935,487.319746 L368.217253,487.319746 C368.217253,487.319746 341.447611,487.319746 341.447611,487.319746 C341.40077,487.319746 341.353929,487.319746 341.283667,487.319746 C341.189985,487.319746 341.096303,487.319746 340.9792,487.319746 C338.613729,487.319746 336.482462,486.545664 334.796186,485.114786 C333.063068,486.287637 331.189427,487.155547 329.081581,487.296289 L328.870797,487.296289 C328.870797,487.296289 316.176881,487.296289 316.176881,487.296289 C316.13004,487.296289 316.083199,487.296289 316.036358,487.296289 L316.036358,487.296289 C313.624045,487.296289 311.422517,486.522207 309.689399,485.067872 C307.206825,486.733321 304.958456,487.437031 301.679585,487.437031 C300.906708,487.437031 300.110411,487.390117 299.197011,487.36666 C297.979145,487.319746 296.597335,487.249375 294.793955,487.249375 C293.810294,487.249375 292.779791,487.249375 291.749289,487.296289 L284.629454,487.554316 L284.629454,487.296289 L273.200245,487.296289 C273.200245,487.296289 273.106563,487.296289 273.059722,487.296289 L273.059722,487.296289 C270.694251,487.296289 268.516143,486.545664 266.829867,485.138243 C265.073329,486.334551 263.199688,487.155547 261.115262,487.272832 L260.927898,487.272832 C260.927898,487.272832 252.028105,487.272832 252.028105,487.272832 C251.887582,487.272832 251.770479,487.272832 251.629956,487.272832 L251.629956,487.272832 C249.241064,487.272832 247.039536,486.49875 245.329839,485.067872 C242.870685,486.709863 240.458373,487.343203 236.078738,487.343203 C235.212179,487.343203 234.205097,487.343203 233.057492,487.296289 C232.167512,487.296289 231.183851,487.272832 230.059667,487.249375 C226.640272,487.249375 223.619026,485.466641 221.839068,482.815997 C221.792227,482.862911 221.721965,482.909825 221.675124,482.980196 C220.176211,484.457989 217.646796,486.920977 213.571628,487.225918 L213.314002,487.225918 C213.314002,487.225918 204.320526,487.225918 204.320526,487.225918 C204.180003,487.225918 204.062901,487.225918 203.922378,487.225918 L203.922378,487.225918 C201.556906,487.225918 199.355378,486.475293 197.645681,485.067872 C195.889143,486.26418 194.015502,487.108633 191.907656,487.225918 L191.720292,487.225918 C191.720292,487.225918 182.797078,487.225918 182.797078,487.225918 C182.656555,487.225918 182.539452,487.225918 182.398929,487.225918 L182.398929,487.225918 C180.056878,487.225918 177.878771,486.475293 176.169074,485.091329 C174.037807,486.662949 171.344449,486.944434 170.220264,487.061719 C168.604249,487.225918 166.496403,487.319746 163.756204,487.319746 C161.460994,487.319746 159.118943,487.272832 157.011097,487.225918 L151.577539,487.225918 C151.577539,487.225918 139.515976,487.225918 139.515976,487.225918 C139.469135,487.225918 139.422294,487.225918 139.375453,487.225918 L139.375453,487.225918 C136.963141,487.225918 134.738192,486.428379 133.028495,484.974043 C130.545921,486.639492 128.297552,487.343203 124.97184,487.343203 C124.198963,487.343203 123.402665,487.296289 122.489266,487.272832 C121.271399,487.225918 119.889589,487.155547 118.062789,487.155547 C117.19623,487.155547 116.306251,487.155547 115.392851,487.202461 L115.392851,487.554316 L111.130318,487.343203 L107.898288,487.460488 L107.898288,487.179004 C106.891206,487.13209 105.907545,487.108633 104.900463,487.108633 C103.214186,487.108633 101.762115,487.179004 100.497407,487.225918 C99.4434841,487.272832 98.5300842,487.319746 97.6401048,487.319746 C96.0475102,487.319746 92.2768081,487.319746 89.3960854,484.364161 C88.7168906,483.683907 88.2016394,482.933282 87.7800703,482.135743 C87.264819,482.604884 86.7495678,483.050567 86.2577371,483.449337 C86.0937936,483.590079 85.9532705,483.707364 85.7893269,483.848106 C82.6978197,487.272832 77.8731947,487.272832 76.186918,487.272832 C75.3437796,487.272832 74.5474823,487.249375 73.844867,487.202461 C73.3530363,487.202461 72.8846261,487.155547 72.556739,487.155547 L72.556739,487.155547 C72.556739,487.155547 72.4630569,487.155547 72.4162159,487.155547 L64.8513913,488 L64.8513913,487.202461 L64.8982323,487.296289 Z" id="Path" fill="#1E1D11"></path>
                <path d="M410.907738,342.219467 C409.103918,342.571578 397.133114,341.303977 396.055507,343.181905 C393.783163,345.130255 391.534245,347.102079 389.261901,349.050429 C388.95736,346.679545 389.379032,342.078622 385.818245,342.195993 C385.818245,342.195993 358.807801,342.195993 358.807801,342.195993 C356.277768,342.336838 351.943916,347.595035 349.531014,349.261696 C349.765276,342.853268 349.413883,341.867356 342.760833,342.195993 C347.141538,338.346241 351.569096,334.566912 355.926375,330.740634 C356.722867,330.177256 357.238244,329.261766 357.238244,328.228906 L357.238244,233.15882 C357.238244,231.445211 355.856096,230.083714 354.169407,230.083714 L323.527898,230.083714 C321.934914,230.083714 320.997865,231.351315 319.920258,232.243331 C318.23357,233.67525 316.570308,235.154118 314.907045,236.609512 C314.977324,234.144732 315.352144,230.083714 311.791357,230.083714 C311.791357,230.083714 299.188045,230.083714 299.188045,230.083714 C296.611159,230.248032 292.558421,235.271489 290.14552,236.93815 C289.840979,234.567266 290.262651,229.966343 286.701864,230.083714 C286.701864,230.083714 259.69142,230.083714 259.69142,230.083714 C257.091108,230.294981 253.764584,234.637688 251.445387,236.257401 C246.947551,240.130627 242.473141,244.0508 237.998731,247.9475 C237.553632,246.163469 238.912354,237.947536 237.085108,236.726883 C235.538976,235.694023 231.322255,229.778551 229.213894,230.107188 C228.136288,230.435825 201.734926,229.191698 202.039467,231.069626 C199.649991,233.088398 197.330795,235.177592 194.941319,237.196365 L194.941319,235.365385 C201.078991,230.036766 207.24009,224.708146 213.354336,219.356052 C218.578386,221.210506 214.689631,138.675587 215.81409,137.173245 C217.945877,134.802361 223.451041,132.008944 223.451041,128.792993 C223.169927,125.530093 224.95032,118.018383 219.632566,118.041857 C219.632566,118.041857 177.277941,118.041857 177.277941,118.041857 C174.068548,118.370494 171.983613,121.891609 169.430154,123.628692 C169.336449,121.32823 169.172466,118.018383 166.080203,118.041857 C166.080203,118.041857 139.069759,118.041857 139.069759,118.041857 C136.492874,118.182701 132.159021,123.487847 129.722693,125.154508 L129.722693,124.215544 C134.478218,120.107577 139.233743,115.976137 143.942415,111.844696 C145.816514,109.802449 151.251399,106.750817 151.227973,104.121718 C151.227973,104.121718 151.227973,72.4551638 151.227973,72.4551638 C151.251399,68.2767748 145.488547,69.544376 142.911661,69.3800573 C144.809186,67.2673887 151.415383,63.2533185 151.227973,60.7415903 C151.227973,60.7415903 151.227973,52.3378641 151.227973,52.3378641 C151.227973,50.6242552 149.845825,49.2627576 148.159137,49.2627576 L143.028792,49.2627576 C145.347989,47.2674595 147.64376,45.2721614 149.93953,43.2533893 C152.680399,43.2533893 150.665743,10.5539745 151.251399,9.07510649 C151.251399,7.36149753 149.869252,6 148.182563,6 L117.541054,6 C115.011021,6.11737048 110.560037,11.5164124 108.123709,13.1830732 C108.076856,10.671345 108.849922,6 105.054873,6 C105.054873,6 95.9420691,6 95.9420691,6 C93.4354625,6.14084457 89.1016098,11.3755678 86.7121343,13.0422286 C86.7121343,10.5305004 87.391495,6 83.6432981,6 C83.6432981,6 74.5304945,6 74.5304945,6 C71.9770354,6.14084457 67.6431827,11.4459901 65.2068548,13.1126509 C65.1600023,10.6243968 65.9096417,6 62.1380186,6 C62.1380186,6 53.0252149,6 53.0252149,6 C50.5186083,6.25821505 49.066182,8.79341734 47.0983786,10.1549149 C43.8655588,12.9483322 40.632739,15.7417496 37.4233455,18.558641 C28.3573943,26.3989888 19.3148693,34.2862848 10.2723444,42.1501068 C9.21816398,43.0186483 8,43.9106639 8.04685246,45.4599542 C8.04685246,45.4599542 8.04685246,140.53004 8.04685246,140.53004 C8.04685246,142.243649 9.42900006,143.605147 11.1156887,143.605147 L22.3837055,143.605147 C19.1274595,146.468986 15.824361,149.285878 12.5681149,152.149717 C10.9985575,153.839852 8.18740984,154.896187 8.04685246,157.478337 C8.04685246,157.478337 8.04685246,252.548423 8.04685246,252.548423 C8.04685246,254.262032 9.42900006,255.623529 11.1156887,255.623529 L23.0162137,255.623529 C19.7599677,258.487369 16.4568692,261.304261 13.2006232,264.1681 C11.6310657,265.858235 8.79649184,266.914569 8.65593445,269.520194 C8.65593445,269.520194 8.65593445,364.543332 8.65593445,364.543332 C8.65593445,366.256941 10.038082,367.665386 11.7716231,367.665386 L22.5242629,367.665386 C19.3617218,370.43533 16.1757544,373.158325 13.0132133,375.951742 C11.3265247,377.806196 8.21083607,378.932952 8,381.702895 C8,381.702895 8,476.702559 8,476.702559 C8,478.439642 9.40557383,479.824614 11.1156887,479.824614 L23.2739023,479.824614 C24.9137384,479.425554 43.2564768,480.763578 43.9358375,478.815228 C46.325313,476.796455 48.6445098,474.707261 51.0339853,472.665015 C51.0574116,475.176743 50.3077722,479.824614 54.1028215,479.824614 C54.1028215,479.824614 66.3078876,479.824614 66.3078876,479.824614 L66.3078876,479.824614 C66.3078876,479.824614 72.5626911,479.80114 72.5626911,479.80114 L72.5626911,479.80114 C74.7179043,479.589873 80.2230685,480.669681 81.698921,478.533539 C82.4954128,477.829316 83.2919047,477.172041 84.0883965,476.444344 C87.4383475,473.580504 90.7648722,470.646242 94.0913969,467.758929 C93.6462985,483.956055 94.2319543,479.026495 109.365299,479.824614 L109.365299,479.824614 C109.365299,479.824614 115.620103,479.80114 115.620103,479.80114 L115.620103,479.80114 C130.261497,479.308184 126.091628,482.618031 137.148808,472.735437 C137.148808,475.247165 136.446022,479.848088 140.217645,479.848088 C140.217645,479.848088 152.422711,479.848088 152.422711,479.848088 L152.422711,479.848088 C154.039121,479.449028 172.452138,480.787052 173.084646,478.862176 C175.474122,476.843404 177.793318,474.754209 180.182794,472.735437 C180.20622,475.247165 179.480007,479.871562 183.25163,479.871562 C183.25163,479.871562 192.364434,479.871562 192.364434,479.871562 C194.917893,479.730717 199.251745,474.425572 201.688073,472.758911 C201.7115,475.270639 200.985286,479.871562 204.75691,479.871562 C204.75691,479.871562 213.869713,479.871562 213.869713,479.871562 C216.212336,479.683769 217.547631,477.383308 219.328025,476.115707 C222.186025,473.674401 224.997173,471.186147 227.855173,468.721367 L227.855173,476.796455 C227.855173,478.510064 229.23732,479.871562 230.924009,479.871562 C243.527321,480.012407 239.966534,480.763578 249.360452,472.758911 C249.383879,475.270639 248.657665,479.871562 252.429289,479.871562 C252.429289,479.871562 261.542092,479.871562 261.542092,479.871562 C264.048699,479.730717 268.382551,474.47252 270.795453,472.829333 C270.795453,475.341062 270.116093,479.871562 273.864289,479.871562 C273.864289,479.871562 286.069355,479.871562 286.069355,479.871562 L286.069355,479.871562 C286.069355,479.871562 292.324159,479.848088 292.324159,479.848088 L292.324159,479.848088 C306.848422,479.331658 302.81911,482.688453 313.782586,472.829333 C313.782586,475.364536 313.126652,479.871562 316.898275,479.871562 C316.898275,479.871562 329.501587,479.871562 329.501587,479.871562 C332.078472,479.707243 336.13121,474.683787 338.544112,473.017126 C338.872079,475.364536 338.403554,480.012407 341.987768,479.871562 C341.987768,479.871562 368.998211,479.871562 368.998211,479.871562 C371.411113,479.80114 376.260343,474.167357 378.626392,472.500696 C384.014425,467.852825 389.379032,463.18148 394.743639,458.510135 C400.740754,453.32236 406.714442,448.134585 412.688131,442.923336 C413.484623,442.359958 414,441.420994 414,440.388134 L414,345.364996 C414,343.651387 412.617852,342.242941 410.884311,342.242941 L410.907738,342.219467 Z" id="Path" fill="#1E1D11"></path>
                <g id="Group" transform="translate(49.000000, 6.000000)" fill="#FFCB18">
                    <g transform="translate(0.023486, 0.000000)">
                        <path d="M15.2895567,101.320992 L21.5603886,101.320992 C21.5603886,101.320992 36.8734316,101.344495 36.8734316,101.344495 L36.8734316,101.344495 C36.8734316,101.344495 43.0503185,101.320992 43.0503185,101.320992 L43.0503185,101.320992 C43.0503185,101.320992 55.2866611,101.344495 55.2866611,101.344495 C57.0011582,101.344495 58.3633614,99.9578236 58.3633614,98.2656149 L58.3633614,3.07887959 C58.3633614,1.36316806 56.977672,0 55.2866611,0 L46.1505051,0 C44.436008,0 43.0738048,1.38667096 43.0738048,3.07887959 L43.0738048,83.6468126 C43.0738048,85.3625241 41.6881153,86.7256922 39.9971044,86.7256922 L39.9971044,86.7256922 C38.2826073,86.7256922 36.9204041,85.3390212 36.9204041,83.6468126 L36.9204041,3.07887959 C36.9204041,1.36316806 35.5347146,0 33.8437038,0 L24.7075478,0 C22.9930506,0 21.6308474,1.38667096 21.6308474,3.07887959 L21.6308474,83.6468126 C21.6308474,85.3625241 20.245158,86.7256922 18.5541471,86.7256922 L18.460202,86.7256922 C16.7457049,86.7256922 15.3835017,85.3390212 15.3835017,83.6468126 L15.3835017,3.07887959 C15.3835017,1.36316806 13.9978122,0 12.3068014,0 L3.17064539,0 C1.45614825,0 0.0939450486,1.38667096 0.0939450486,3.07887959 L0.0939450486,98.2656149 C0.0939450486,99.9813265 1.47963452,101.344495 3.17064539,101.344495 L15.406988,101.344495 L15.2895567,101.320992 Z" id="Path"></path>
                        <path d="M36.8499453,204.710238 L36.8499453,120.969414 C36.8499453,120.146813 36.5211376,119.371217 35.9574673,118.783645 L30.2503056,113.07244 C29.6631491,112.484868 28.8881024,112.17933 28.0660833,112.17933 L3.07670034,112.17933 C1.3622032,112.17933 0,113.566001 0,115.25821 L0,210.444945 C0,212.160657 1.38568947,213.523825 3.07670034,213.523825 L28.0660833,213.523825 C28.8881024,213.523825 29.6631491,213.194784 30.2503056,212.630715 L35.9574673,206.919511 C36.5446239,206.331938 36.8499453,205.556343 36.8499453,204.733741 L36.8499453,204.710238 Z M18.4367158,198.928525 L18.3427707,198.928525 C16.6282736,198.928525 15.2660704,197.541854 15.2660704,195.849646 L15.2660704,129.830006 C15.2660704,128.114295 16.6517599,126.751127 18.3427707,126.751127 L18.4367158,126.751127 C20.1512129,126.751127 21.5134161,128.137798 21.5134161,129.830006 L21.5134161,195.849646 C21.5134161,197.565357 20.1277267,198.928525 18.4367158,198.928525 Z" id="Shape"></path>
                        <path d="M79.9942089,101.320992 L98.4778972,101.320992 C100.192394,101.320992 101.554598,99.9343207 101.554598,98.242112 L101.554598,66.5367032 C101.554598,64.8209916 100.168908,63.4578236 98.4778972,63.4578236 L89.3417412,63.4578236 C87.6272441,63.4578236 86.2650409,64.8444945 86.2650409,66.5367032 L86.2650409,83.6468126 C86.2650409,85.3625241 84.8793514,86.7256922 83.1883405,86.7256922 L83.0943955,86.7256922 C81.3798983,86.7256922 80.0176951,85.3390212 80.0176951,83.6468126 L80.0176951,60.9900193 C80.0176951,59.2743078 81.4033846,57.9111397 83.0943955,57.9111397 L98.5013834,57.9111397 C100.215881,57.9111397 101.578084,56.5244688 101.578084,54.8322601 L101.578084,46.4182228 C101.578084,44.7025113 100.192394,43.3393432 98.5013834,43.3393432 L83.0943955,43.3393432 C81.3798983,43.3393432 80.0176951,41.9526722 80.0176951,40.2604636 L80.0176951,17.674179 C80.0176951,15.9584675 81.4033846,14.5952994 83.0943955,14.5952994 L83.1883405,14.5952994 C84.9028377,14.5952994 86.2650409,15.9819704 86.2650409,17.674179 L86.2650409,34.7842885 C86.2650409,36.5 87.6507303,37.8631681 89.3417412,37.8631681 L98.4778972,37.8631681 C100.192394,37.8631681 101.554598,36.4764971 101.554598,34.7842885 L101.554598,3.07887959 C101.554598,1.36316806 100.168908,0 98.4778972,0 L67.7578663,0 C66.0433692,0 64.6811659,1.38667096 64.6811659,3.07887959 L64.6811659,98.2656149 C64.6811659,99.9813265 66.0668554,101.344495 67.7578663,101.344495 L79.9942089,101.344495 L79.9942089,101.320992 Z" id="Path"></path>
                        <path d="M76.9175085,112.155827 L46.1974776,112.155827 C44.4829805,112.155827 43.1207773,113.542498 43.1207773,115.234707 L43.1207773,210.421442 C43.1207773,212.137154 44.5064668,213.500322 46.1974776,213.500322 L76.9175085,213.500322 C78.6320057,213.500322 79.9942089,212.113651 79.9942089,210.421442 L79.9942089,115.25821 C79.9942089,113.542498 78.6085194,112.17933 76.9175085,112.17933 L76.9175085,112.155827 Z M61.6044656,198.928525 L61.5105206,198.928525 C59.7960234,198.928525 58.4338202,197.541854 58.4338202,195.849646 L58.4338202,129.830006 C58.4338202,128.114295 59.8195097,126.751127 61.5105206,126.751127 L61.6044656,126.751127 C63.3189627,126.751127 64.6811659,128.137798 64.6811659,129.830006 L64.6811659,195.849646 C64.6811659,197.565357 63.2954765,198.928525 61.6044656,198.928525 Z" id="Shape"></path>
                        <path d="M154.82144,213.523825 L162.477962,213.523825 C164.591725,213.523825 166.306222,211.808113 166.306222,209.692853 L166.306222,130.582099 C166.306222,128.466838 168.020719,126.751127 170.134483,126.751127 L170.134483,126.751127 C172.248247,126.751127 173.962744,125.035415 173.962744,122.920155 L173.962744,115.9868 C173.962744,113.871539 172.248247,112.155827 170.134483,112.155827 L127.671321,112.155827 C125.393154,112.155827 123.608198,114.153574 123.866547,116.433355 L124.665079,123.36671 C124.899942,125.293947 126.520494,126.751127 128.469854,126.751127 L147.164919,126.751127 C149.278682,126.751127 150.993179,128.466838 150.993179,130.582099 L150.993179,209.692853 C150.993179,211.808113 152.707676,213.523825 154.82144,213.523825 L154.82144,213.523825 Z" id="Path"></path>
                        <path d="M126.050769,137.186413 L132.95573,195.544108 C133.120134,197.377334 131.687472,198.928525 129.855543,198.928525 L129.855543,198.928525 C128.234991,198.928525 126.896274,197.682872 126.755357,196.084675 L119.568561,114.999678 C119.427643,113.401481 118.088926,112.155827 116.468374,112.155827 L89.3887137,112.155827 C87.6742166,112.155827 86.2650409,113.542498 86.2650409,115.281713 L86.2650409,210.421442 C86.2650409,212.137154 87.6507303,213.547328 89.3887137,213.547328 L102.024323,213.547328 C103.856251,213.547328 105.288913,211.972634 105.124509,210.16291 L98.0316582,130.159047 C97.8672544,128.325821 99.2999164,126.77463 101.131845,126.77463 L101.131845,126.77463 C102.752397,126.77463 104.091114,128.020283 104.232031,129.61848 L111.418828,210.703477 C111.559745,212.301674 112.898462,213.547328 114.519014,213.547328 L141.598674,213.547328 C143.313172,213.547328 144.722347,212.160657 144.722347,210.421442 L144.910237,136.927882 C144.910237,135.21217 143.524548,133.801996 141.786565,133.801996 L129.150956,133.801996 C127.319027,133.801996 125.886365,135.37669 126.050769,137.186413 Z" id="Path"></path>
                    </g>
                    <g transform="translate(0.634129, 224.335158)">
                        <path d="M98.5013834,63.4578236 L89.3652275,63.4578236 C87.6507303,63.4578236 86.2885271,64.8444945 86.2885271,66.5367032 L86.2885271,83.6468126 C86.2885271,85.3625241 84.9028377,86.7256922 83.2118268,86.7256922 L83.1178817,86.7256922 C81.4033846,86.7256922 80.0411814,85.3390212 80.0411814,83.6468126 L80.0411814,60.9900193 C80.0411814,59.2743078 81.4268709,57.9111397 83.1178817,57.9111397 L98.5248697,57.9111397 C100.239367,57.9111397 101.60157,56.5244688 101.60157,54.8322601 L101.60157,46.4182228 C101.60157,44.7025113 100.215881,43.3393432 98.5248697,43.3393432 L83.1178817,43.3393432 C81.4033846,43.3393432 80.0411814,41.9526722 80.0411814,40.2604636 L80.0411814,17.6976819 C80.0411814,15.9819704 81.4268709,14.6188023 83.1178817,14.6188023 L83.2118268,14.6188023 C84.9263239,14.6188023 86.2885271,16.0054733 86.2885271,17.6976819 L86.2885271,34.8077914 C86.2885271,36.5235029 87.6742166,37.886671 89.3652275,37.886671 L98.5013834,37.886671 C100.215881,37.886671 101.578084,36.5 101.578084,34.8077914 L101.578084,3.10238249 C101.578084,1.38667096 100.192394,0.0235028976 98.5013834,0.0235028976 L67.7813526,0.0235028976 C66.0668554,0.0235028976 64.7046522,1.41017386 64.7046522,3.10238249 L64.7046522,98.2891178 C64.7046522,100.004829 66.0903417,101.367997 67.7813526,101.367997 L80.0176951,101.367997 C80.0176951,101.367997 98.5013834,101.344495 98.5013834,101.344495 C100.215881,101.344495 101.578084,99.9578236 101.578084,98.2656149 L101.578084,66.5602061 C101.578084,64.8444945 100.192394,63.4813265 98.5013834,63.4813265 L98.5013834,63.4578236 Z" id="Path"></path>
                        <path d="M141.669133,63.4578236 L132.532977,63.4578236 C130.81848,63.4578236 129.456277,64.8444945 129.456277,66.5367032 L129.456277,83.6468126 C129.456277,85.3625241 128.070587,86.7256922 126.379577,86.7256922 L126.285632,86.7256922 C124.571134,86.7256922 123.208931,85.3390212 123.208931,83.6468126 L123.208931,60.9900193 C123.208931,59.2743078 124.594621,57.9111397 126.285632,57.9111397 L141.69262,57.9111397 C143.407117,57.9111397 144.76932,56.5244688 144.76932,54.8322601 L144.76932,46.4182228 C144.76932,44.7025113 143.38363,43.3393432 141.69262,43.3393432 L126.285632,43.3393432 C124.571134,43.3393432 123.208931,41.9526722 123.208931,40.2604636 L123.208931,17.6976819 C123.208931,15.9819704 124.594621,14.6188023 126.285632,14.6188023 L126.379577,14.6188023 C128.094074,14.6188023 129.456277,16.0054733 129.456277,17.6976819 L129.456277,34.8077914 C129.456277,36.5235029 130.841966,37.886671 132.532977,37.886671 L141.669133,37.886671 C143.38363,37.886671 144.745834,36.5 144.745834,34.8077914 L144.745834,3.10238249 C144.745834,1.38667096 143.360144,0.0235028976 141.669133,0.0235028976 L110.949102,0.0235028976 C109.234605,0.0235028976 107.872402,1.41017386 107.872402,3.10238249 L107.872402,98.2891178 C107.872402,100.004829 109.258091,101.367997 110.949102,101.367997 L123.185445,101.367997 C123.185445,101.367997 141.669133,101.344495 141.669133,101.344495 C143.38363,101.344495 144.745834,99.9578236 144.745834,98.2656149 L144.745834,66.5602061 C144.745834,64.8444945 143.360144,63.4813265 141.669133,63.4813265 L141.669133,63.4578236 Z" id="Path"></path>
                        <path d="M172.577054,101.367997 L179.082749,101.367997 C179.904768,101.367997 180.679815,101.038957 181.266971,100.474887 L186.974133,94.7636832 C187.561289,94.1761108 187.866611,93.4005151 187.866611,92.5779137 L187.866611,8.8370895 C187.866611,8.01448809 187.537803,7.23889247 186.974133,6.65132003 L181.266971,0.940115905 C180.679815,0.352543464 179.904768,0.0470057952 179.082749,0.0470057952 L154.093366,0.0470057952 C152.378869,0.0470057952 151.016666,1.43367675 151.016666,3.12588538 L151.016666,98.3126207 C151.016666,100.028332 152.402355,101.3915 154.093366,101.3915 L166.329709,101.3915 C166.329709,101.3915 172.600541,101.367997 172.600541,101.367997 L172.600541,101.367997 L172.577054,101.367997 Z M166.306222,83.6938184 L166.306222,17.6976819 C166.306222,15.9819704 167.691912,14.6188023 169.382923,14.6188023 L169.476868,14.6188023 C171.191365,14.6188023 172.553568,16.0054733 172.553568,17.6976819 L172.553568,83.6938184 C172.553568,85.4095299 171.167879,86.772698 169.476868,86.772698 L169.382923,86.772698 C167.668425,86.772698 166.306222,85.386027 166.306222,83.6938184 Z" id="Shape"></path>
                        <path d="M307.458658,98.2656149 L307.458658,3.07887959 C307.458658,1.36316806 306.072968,0 304.381957,0 L273.661927,0 C271.947429,0 270.585226,1.38667096 270.585226,3.07887959 L270.585226,98.2656149 C270.585226,99.9813265 271.970916,101.344495 273.661927,101.344495 L285.898269,101.344495 C285.898269,101.344495 292.169101,101.320992 292.169101,101.320992 L292.169101,101.320992 C292.169101,101.320992 304.405444,101.344495 304.405444,101.344495 C306.119941,101.344495 307.482144,99.9578236 307.482144,98.2656149 L307.458658,98.2656149 Z M285.874783,83.6468126 L285.874783,17.6506761 C285.874783,15.9349646 287.260472,14.5717965 288.951483,14.5717965 L289.045428,14.5717965 C290.759925,14.5717965 292.122129,15.9584675 292.122129,17.6506761 L292.122129,83.6468126 C292.122129,85.3625241 290.736439,86.7256922 289.045428,86.7256922 L288.951483,86.7256922 C287.236986,86.7256922 285.874783,85.3390212 285.874783,83.6468126 Z" id="Shape"></path>
                        <path d="M246.136027,3.38441726 L253.228878,83.3882807 C253.393282,85.2215068 251.96062,86.772698 250.128692,86.772698 L250.128692,86.772698 C248.50814,86.772698 247.169423,85.5270444 247.028505,83.9288474 L239.841709,2.84385061 C239.700791,1.24565357 238.362075,0 236.741522,0 L209.661862,0 C207.947365,0 206.538189,1.38667096 206.538189,3.12588538 L206.538189,98.2656149 C206.538189,99.9813265 207.923879,101.3915 209.661862,101.3915 L222.297471,101.3915 C224.1294,101.3915 225.562062,99.8168062 225.397658,98.0070831 L218.304807,18.0032196 C218.140403,16.1699936 219.573065,14.6188023 221.404993,14.6188023 L221.404993,14.6188023 C223.025545,14.6188023 224.364262,15.8644559 224.50518,17.4626529 L231.691976,98.5476497 C231.832894,100.145847 233.171611,101.3915 234.792163,101.3915 L261.871823,101.3915 C263.58632,101.3915 264.995496,100.004829 264.995496,98.2656149 L264.995496,3.12588538 C264.995496,1.41017386 263.609806,0 261.871823,0 L249.236214,0 C247.404285,0 245.971623,1.57469414 246.136027,3.38441726 L246.136027,3.38441726 Z" id="Path"></path>
                        <path d="M39.597838,3.38441726 L46.6906891,83.3882807 C46.855093,85.2215068 45.422431,86.772698 43.5905025,86.772698 L43.5905025,86.772698 C41.9699505,86.772698 40.6312335,85.5270444 40.4903159,83.9288474 L33.3035197,2.84385061 C33.1626021,1.24565357 31.8238852,0 30.2033331,0 L3.12367287,0 C1.40917573,0 0,1.38667096 0,3.12588538 L0,98.2656149 C0,99.9813265 1.38568947,101.3915 3.12367287,101.3915 L15.7592819,101.3915 C17.5912103,101.3915 19.0238723,99.8168062 18.8594685,98.0070831 L11.7666173,18.0032196 C11.6022135,16.1699936 13.0348755,14.6188023 14.8668039,14.6188023 L14.8668039,14.6188023 C16.487356,14.6188023 17.826073,15.8644559 17.9669905,17.4626529 L25.1537868,98.5476497 C25.2947043,100.145847 26.6334213,101.3915 28.2539734,101.3915 L55.3336336,101.3915 C57.0481308,101.3915 58.4573065,100.004829 58.4573065,98.2656149 L58.4573065,3.12588538 C58.4573065,1.41017386 57.071617,0 55.3336336,0 L42.6980246,0 C40.8660961,0 39.4334341,1.57469414 39.597838,3.38441726 L39.597838,3.38441726 Z" id="Path"></path>
                    </g>
                    <g transform="translate(0.000000, 336.608500)">
                        <path d="M0,98.242112 C0,99.9813265 1.40917573,101.367997 3.12367287,101.367997 L15.3130429,101.367997 C15.3130429,101.367997 33.7497587,101.344495 33.7497587,101.344495 C35.4877421,101.344495 36.8734316,99.9343207 36.8734316,98.2186091 L36.8734316,66.6072118 C36.8734316,64.8679974 35.4642558,63.4813265 33.7497587,63.4813265 L24.6840615,63.4813265 C22.9460781,63.4813265 21.5603886,64.8915003 21.5603886,66.6072118 L21.5603886,83.6233097 C21.5603886,85.3625241 20.1512129,86.7491951 18.4367158,86.7491951 L18.4367158,86.7491951 C16.6987324,86.7491951 15.3130429,85.3390212 15.3130429,83.6233097 L15.3130429,61.0370251 C15.3130429,59.2978107 16.7222186,57.9111397 18.4367158,57.9111397 L33.7497587,57.9111397 C35.4877421,57.9111397 36.8734316,56.5009659 36.8734316,54.7852543 L36.8734316,46.4652286 C36.8734316,44.7260142 35.4642558,43.3393432 33.7497587,43.3393432 L18.4367158,43.3393432 C16.6987324,43.3393432 15.3130429,41.9291693 15.3130429,40.2134578 L15.3130429,17.7446877 C15.3130429,16.0054733 16.7222186,14.6188023 18.4367158,14.6188023 L18.4367158,14.6188023 C20.1746992,14.6188023 21.5603886,16.0289762 21.5603886,17.7446877 L21.5603886,34.7607856 C21.5603886,36.5 22.9695644,37.886671 24.6840615,37.886671 L33.7497587,37.886671 C35.4877421,37.886671 36.8734316,36.4764971 36.8734316,34.7607856 L36.8734316,3.14938828 C36.8734316,1.41017386 35.4642558,0.0235028976 33.7497587,0.0235028976 L3.12367287,0.0235028976 C1.38568947,0.0235028976 0,1.43367675 0,3.14938828 L0,98.2656149 L0,98.242112 Z" id="Path"></path>
                        <path d="M129.432791,98.2891178 C129.432791,100.004829 130.81848,101.367997 132.509491,101.367997 L144.745834,101.367997 C144.745834,101.367997 163.229522,101.344495 163.229522,101.344495 C164.944019,101.344495 166.306222,99.9578236 166.306222,98.2656149 L166.306222,56.9005151 C166.306222,55.1848036 164.920533,53.8216355 163.229522,53.8216355 L154.093366,53.8216355 C152.378869,53.8216355 151.016666,55.2083065 151.016666,56.9005151 L151.016666,83.6703155 C151.016666,85.386027 149.630976,86.7491951 147.939965,86.7491951 L147.84602,86.7491951 C146.131523,86.7491951 144.76932,85.3625241 144.76932,83.6703155 L144.76932,17.674179 C144.76932,15.9584675 146.155009,14.5952994 147.84602,14.5952994 L147.939965,14.5952994 C149.654462,14.5952994 151.016666,15.9819704 151.016666,17.674179 L151.016666,44.4439794 C151.016666,46.1596909 152.402355,47.522859 154.093366,47.522859 L163.229522,47.522859 C164.944019,47.522859 166.306222,46.136188 166.306222,44.4439794 L166.306222,3.07887959 C166.306222,1.36316806 164.920533,6.67992527e-14 163.229522,6.67992527e-14 L132.509491,6.67992527e-14 C130.794994,6.67992527e-14 129.432791,1.38667096 129.432791,3.07887959 L129.432791,98.2656149 L129.432791,98.2891178 Z" id="Path"></path>
                        <path d="M43.1442636,3.07887959 L43.1442636,98.2656149 C43.1442636,99.9813265 44.529953,101.344495 46.2209639,101.344495 L58.4573065,101.344495 C58.4573065,101.344495 64.7281385,101.320992 64.7281385,101.320992 L64.7281385,101.320992 C64.7281385,101.320992 71.2338331,101.344495 71.2338331,101.344495 C72.0558523,101.344495 72.8308989,101.015454 73.4180555,100.451384 L79.1252172,94.7401803 C79.7123737,94.1526079 80.0176951,93.3770122 80.0176951,92.5544108 L80.0176951,8.81358661 C80.0176951,7.99098519 79.6888875,7.21538957 79.1252172,6.62781713 L73.4180555,0.916613007 C72.8308989,0.329040567 72.0558523,0.0235028976 71.2338331,0.0235028976 L46.2444502,0.0235028976 C44.529953,0.0235028976 43.1677498,1.41017386 43.1677498,3.10238249 L43.1442636,3.07887959 Z M61.6279519,86.7491951 L61.5340068,86.7491951 C59.8195097,86.7491951 58.4573065,85.3625241 58.4573065,83.6703155 L58.4573065,17.674179 C58.4573065,15.9584675 59.8429959,14.5952994 61.5340068,14.5952994 L61.6279519,14.5952994 C63.342449,14.5952994 64.7046522,15.9819704 64.7046522,17.674179 L64.7046522,83.6703155 C64.7046522,85.386027 63.3189627,86.7491951 61.6279519,86.7491951 Z" id="Shape"></path>
                        <path d="M263.468889,98.2891178 C263.468889,100.004829 264.854578,101.367997 266.545589,101.367997 L278.781932,101.367997 C278.781932,101.367997 285.052764,101.344495 285.052764,101.344495 L285.052764,101.344495 C285.052764,101.344495 297.289106,101.367997 297.289106,101.367997 C299.003603,101.367997 300.365807,99.9813265 300.365807,98.2891178 L300.365807,3.10238249 C300.365807,1.38667096 298.980117,0.0235028976 297.289106,0.0235028976 L266.569075,0.0235028976 C264.854578,0.0235028976 263.492375,1.41017386 263.492375,3.10238249 L263.492375,98.2891178 L263.468889,98.2891178 Z M281.882118,14.5952994 L281.976063,14.5952994 C283.69056,14.5952994 285.052764,15.9819704 285.052764,17.674179 L285.052764,83.6703155 C285.052764,85.386027 283.667074,86.7491951 281.976063,86.7491951 L281.882118,86.7491951 C280.167621,86.7491951 278.805418,85.3625241 278.805418,83.6703155 L278.805418,17.674179 C278.805418,15.9584675 280.191107,14.5952994 281.882118,14.5952994 Z" id="Shape"></path>
                        <path d="M175.653755,101.367997 L184.789911,101.367997 C186.504408,101.367997 187.866611,99.9813265 187.866611,98.2891178 L187.866611,73.8696072 C187.866611,72.1538957 189.2523,70.7907276 190.943311,70.7907276 L191.037256,70.7907276 C192.751753,70.7907276 194.113957,72.1773986 194.113957,73.8696072 L194.113957,98.2891178 C194.113957,100.004829 195.499646,101.367997 197.190657,101.367997 L206.326813,101.367997 C208.04131,101.367997 209.403513,99.9813265 209.403513,98.2891178 L209.403513,3.10238249 C209.403513,1.38667096 208.017824,0.0235028976 206.326813,0.0235028976 L175.606782,0.0235028976 C173.892285,0.0235028976 172.530082,1.41017386 172.530082,3.10238249 L172.530082,98.2891178 C172.530082,100.004829 173.915771,101.367997 175.606782,101.367997 L175.653755,101.367997 Z M190.966798,14.5952994 L191.060743,14.5952994 C192.77524,14.5952994 194.137443,15.9819704 194.137443,17.674179 L194.137443,53.0695428 C194.137443,54.7852543 192.751753,56.1484224 191.060743,56.1484224 L190.966798,56.1484224 C189.2523,56.1484224 187.890097,54.7617514 187.890097,53.0695428 L187.890097,17.674179 C187.890097,15.9584675 189.275787,14.5952994 190.966798,14.5952994 Z" id="Shape"></path>
                        <path d="M104.772215,86.7491951 L104.67827,86.7491951 C102.963773,86.7491951 101.60157,85.3625241 101.60157,83.6703155 L101.60157,3.10238249 C101.60157,1.38667096 100.215881,0.0235028976 98.5248697,0.0235028976 L89.3887137,0.0235028976 C87.6742166,0.0235028976 86.3120134,1.41017386 86.3120134,3.10238249 L86.3120134,98.2891178 C86.3120134,100.004829 87.6977029,101.367997 89.3887137,101.367997 L101.625056,101.367997 C101.625056,101.367997 107.895888,101.344495 107.895888,101.344495 L107.895888,101.344495 C107.895888,101.344495 120.132231,101.367997 120.132231,101.367997 C121.846728,101.367997 123.208931,99.9813265 123.208931,98.2891178 L123.208931,3.10238249 C123.208931,1.38667096 121.823242,0.0235028976 120.132231,0.0235028976 L110.996075,0.0235028976 C109.281578,0.0235028976 107.919375,1.41017386 107.919375,3.10238249 L107.919375,83.6703155 C107.919375,85.386027 106.533685,86.7491951 104.842674,86.7491951 L104.772215,86.7491951 Z" id="Path"></path>
                        <path d="M215.744804,14.5952994 L217.294897,14.5952994 C219.009395,14.5952994 220.371598,15.9819704 220.371598,17.674179 L220.371598,98.2891178 C220.371598,100.004829 221.757287,101.367997 223.448298,101.367997 L232.584454,101.367997 C234.298951,101.367997 235.661154,99.9813265 235.661154,98.2891178 L235.661154,17.674179 C235.661154,15.9584675 237.046844,14.5952994 238.737855,14.5952994 L254.144843,14.5952994 C255.85934,14.5952994 257.221543,13.2086285 257.221543,11.5164198 L257.221543,3.10238249 C257.221543,1.38667096 255.835854,0.0235028976 254.144843,0.0235028976 L215.697832,0.0235028976 C213.983334,0.0235028976 212.621131,1.41017386 212.621131,3.10238249 L212.621131,11.5164198 C212.621131,13.2321314 214.006821,14.5952994 215.697832,14.5952994 L215.744804,14.5952994 Z" id="Path"></path>
                        <rect id="Rectangle" x="241.955473" y="21.57566" width="15.3130429" height="79.8158403" rx="1.31"></rect>
                        <path d="M346.140531,3.38441726 L353.233383,83.3882807 C353.397787,85.2215068 351.965125,86.772698 350.133196,86.772698 L350.133196,86.772698 C348.512644,86.772698 347.173927,85.5270444 347.033009,83.9288474 L339.846213,2.84385061 C339.705296,1.24565357 338.366579,0 336.746027,0 L309.666366,0 C307.951869,0 306.542694,1.38667096 306.542694,3.12588538 L306.542694,98.2656149 C306.542694,99.9813265 307.928383,101.3915 309.666366,101.3915 L322.301975,101.3915 C324.133904,101.3915 325.566566,99.8168062 325.402162,98.0070831 L318.309311,18.0032196 C318.144907,16.1699936 319.577569,14.6188023 321.409497,14.6188023 L321.409497,14.6188023 C323.03005,14.6188023 324.368766,15.8644559 324.509684,17.4626529 L331.69648,98.5476497 C331.837398,100.145847 333.176115,101.3915 334.796667,101.3915 L361.876327,101.3915 C363.590824,101.3915 365,100.004829 365,98.2656149 L365,3.12588538 C365,1.41017386 363.614311,0 361.876327,0 L349.240718,0 C347.40879,0 345.976128,1.57469414 346.140531,3.38441726 Z" id="Path"></path>
                    </g>
                </g>
            </g>
        </g>
    </g>
</svg>